<svg xmlns="http://www.w3.org/2000/svg" width="33.851" height="53.261" viewBox="0 0 33.851 53.261">
  <g id="phone_smartphone_telephone_d" data-name="phone, smartphone, telephone, d" transform="translate(-24.25 -9.25)">
    <path id="Path_14466" data-name="Path 14466" d="M57.351,58.527a3.244,3.244,0,0,1-3.234,3.234H28.234A3.244,3.244,0,0,1,25,58.527V13.234A3.244,3.244,0,0,1,28.234,10H54.116a3.244,3.244,0,0,1,3.234,3.234Z" fill="none" stroke="#faa530" stroke-linecap="round" stroke-linejoin="round" stroke-miterlimit="10" stroke-width="1.5"/>
    <rect id="Rectangle_163" data-name="Rectangle 163" width="32.351" height="32.353" transform="translate(25 18.088)" fill="none" stroke="#faa530" stroke-linecap="round" stroke-linejoin="round" stroke-miterlimit="10" stroke-width="1.5"/>
    <circle id="Ellipse_46" data-name="Ellipse 46" cx="2.426" cy="2.426" r="2.426" transform="translate(38.749 53.673)" fill="none" stroke="#faa530" stroke-linecap="round" stroke-linejoin="round" stroke-miterlimit="10" stroke-width="1.5"/>
    <path id="Path_14467" data-name="Path 14467" d="M60,81.249h0Z" transform="translate(-12.354 -25.15)" fill="none" stroke="#faa530" stroke-linecap="round" stroke-linejoin="round" stroke-miterlimit="10" stroke-width="1.5"/>
    <path id="Path_14468" data-name="Path 14468" d="M46.251,16.249h0Z" transform="translate(-7.501 -2.206)" fill="none" stroke="#faa530" stroke-linecap="round" stroke-linejoin="round" stroke-miterlimit="10" stroke-width="1.5"/>
    <path id="Path_14469" data-name="Path 14469" d="M32.5,81.249h0Z" transform="translate(-2.647 -25.15)" fill="none" stroke="#faa530" stroke-linecap="round" stroke-linejoin="round" stroke-miterlimit="10" stroke-width="1.5"/>
  </g>
</svg>
