<svg xmlns="http://www.w3.org/2000/svg" width="131.204" height="263.327" viewBox="0 0 131.204 263.327">
  <path id="Union_2" data-name="Union 2" d="M109.765,261.676a9.316,9.316,0,0,1-3.8-4.694c-.506-1.642-1.359-3.172-1.3-4.984a8.21,8.21,0,0,1,1.651-5.116,25.012,25.012,0,0,0,3.075-5.308,10.164,10.164,0,0,0-.615-9.935,2.847,2.847,0,0,0-2-1.52,3.893,3.893,0,0,1-2.506-1.354,3.72,3.72,0,0,0-.707-.666c-2.72-1.78-3.928-4.524-4.787-7.485-.151-.519-.231-1.057-.349-1.586a1.842,1.842,0,0,0-.9-1.282,3.908,3.908,0,0,1-1.851-1.751c-.216-.494-.414-1.107-1.042-1.1-.38.005-.75.363-1.137.534a3.086,3.086,0,0,1-4.133-1.94,8.21,8.21,0,0,1-.4-3.841,19.424,19.424,0,0,1,.776-3.146,3.991,3.991,0,0,1,.89-1.33,1.676,1.676,0,0,1,2.758.266,7.21,7.21,0,0,1,.657,1.462c.138.4.154.851.272,1.265a1.416,1.416,0,0,0,1.724,1.1c1.917-.693,4.079-.663,5.81-1.85a4.047,4.047,0,0,1,3.028-.811,2.612,2.612,0,0,0,2.56-1.057c1.222-1.512,3.091-1.932,4.751-2.671a2.953,2.953,0,0,1,2.514.212,8.547,8.547,0,0,1,4.28,5.078,21.506,21.506,0,0,1,1.2,7.855,30.73,30.73,0,0,1-2.738,11.4,56.052,56.052,0,0,0-2.512,6.31,30.022,30.022,0,0,0-.848,6.4,4.238,4.238,0,0,0,.776,2.435,10.427,10.427,0,0,1,1.324,3.634q.51,3.69.835,7.4a15.173,15.173,0,0,1-.146,2.915c-.263,2.423-.281,2.42-1.836,4.354a4.113,4.113,0,0,1-3.169,1.46A3.551,3.551,0,0,1,109.765,261.676ZM.307,253.129a.434.434,0,0,1-.183-.251,2.374,2.374,0,0,1,.306-2.137c1.068-1.4,1.717-3.067,2.846-4.421a2.2,2.2,0,0,1,.02.805,27.4,27.4,0,0,1-2.178,5.63c-.086.158-.327.243-.508.336a.493.493,0,0,1-.213.055A.219.219,0,0,1,.307,253.129Zm24.465-7.175c-.014-.107-.048-.213-.057-.32-.02-.216-.028-.431-.052-.837a5.431,5.431,0,0,1,.134-1.418c.741-2.181.625-4.482,1.021-6.709a10.93,10.93,0,0,1,.537-2.521,37.628,37.628,0,0,0,2.206-7.786,37.13,37.13,0,0,1,1.819-5.525c.067-.183.292-.462.408-.446.41.059.25.448.247.69a10.42,10.42,0,0,1-.127,1.606,61.5,61.5,0,0,1-1.645,7.588,19.553,19.553,0,0,0-.558,2.852,26.513,26.513,0,0,1-1.33,5.663,21.52,21.52,0,0,0-.735,3.475c-.243,1.269-.455,2.544-.718,3.81-.031.152-.3.267-.472.373a.224.224,0,0,1-.119.032A.67.67,0,0,1,24.772,245.954Zm-21.507.223.091-.054a.674.674,0,0,1-.017.123l-.063.075C3.271,246.272,3.267,246.224,3.264,246.177Zm.427-.567c.016,0,.093.229.059.254a2.752,2.752,0,0,1-.395.259C3.369,245.894,3.324,245.634,3.691,245.61Zm11.554-32.667.192.038-.138.257Zm.491-2.363c.137-.447.317-.882.485-1.32,0,.486.005.973-.008,1.459,0,.094-.1.261-.147.263h-.006A.3.3,0,0,1,15.737,210.58Zm.485-1.416.005,0,0,0,.015-.01.033-.023h0l.127-.077-.129.081-.048.127Q16.222,209.213,16.222,209.165Zm69.758-5.288a5.177,5.177,0,0,1-.149-7.255,9.3,9.3,0,0,1,1.424-1.123,8.727,8.727,0,0,1,1.57.162,2.325,2.325,0,0,1,1.46,1.177,4.946,4.946,0,0,1,.238,4.633,15.883,15.883,0,0,1-.968,1.661,2.93,2.93,0,0,1-1.516,1.13,2.283,2.283,0,0,1-.813.164A1.693,1.693,0,0,1,85.98,203.876Zm1.259-8.379.1-.061-.082.063Zm.012-.048.087-.013-.1.061C87.243,195.481,87.247,195.465,87.251,195.449Zm-2.082-.395a6.708,6.708,0,0,1-2.39-7.753,3.922,3.922,0,0,1,2.6-2.686c1.307-.287,1.41-.817,1.171-1.92a1.643,1.643,0,0,1,.856-1.631,1.374,1.374,0,0,1,1.5-.245,1.524,1.524,0,0,1,.86,1.276,1.827,1.827,0,0,1-.011.953,2.437,2.437,0,0,0,.259,3.175,4.027,4.027,0,0,1,.666,3.393c-.1.637-.236,1.273-.393,1.9a4.193,4.193,0,0,1-1.768,2.615c-.517.339-1.088.647-1.264,1.316a4.183,4.183,0,0,1-.6.046A2.534,2.534,0,0,1,85.169,195.054Zm-1.015-30.277a3.836,3.836,0,0,1,.679-3.064A6.14,6.14,0,0,1,87.15,159.1a3.4,3.4,0,0,0,1-.79,3.756,3.756,0,0,1,2.524-1.265,15.984,15.984,0,0,0,1.544-.448,2.039,2.039,0,0,1,2.515,1.445c.131.406.2.832.306,1.3a9.6,9.6,0,0,1-1.657,4.1c-.759,1.04-1.607,2.014-2.408,3.022a4.173,4.173,0,0,1-1.515,1.148,4.249,4.249,0,0,1-1.851.476C85.913,168.085,84.74,166.724,84.154,164.777Zm35.935-13.637a3.886,3.886,0,0,1-.43-2.194c.057-.427.154-.85.253-1.271a3.207,3.207,0,0,0-.919-3.279,9.493,9.493,0,0,1-2.683-5.422c-.2-.94-.085-1.948-.238-2.9a11.752,11.752,0,0,1,3.217-9.138,2.554,2.554,0,0,0,.793-2.641c-.252-1.163-.468-2.334-.742-3.489a1.609,1.609,0,0,0-1.635-1.3,11.352,11.352,0,0,0-1.3.059,1.945,1.945,0,0,1-.863-.193c-.442-.172-.876-.344-1.3.007a11.211,11.211,0,0,0-1.426,1.742,12.563,12.563,0,0,0-.807,1.016,3.937,3.937,0,0,1-4.069,2.071,1.467,1.467,0,0,0-1.346.725,3.339,3.339,0,0,1-1.837,1.261c-1.944.448-1.963.437-3.075,1.755a2.966,2.966,0,0,1-1.216,1.035,5.454,5.454,0,0,0-2.6,1.8.842.842,0,0,1-.547.314c-1.267-.079-1.587.882-2.007,1.748a.407.407,0,0,1-.236.2,1.166,1.166,0,0,1-.6.046c-.174-.064-.432-.3-.412-.419.224-1.388.507-2.763.743-4.147a3.457,3.457,0,0,0-.312-2.207c-.152-.3-.9-.551-1.12-.338-.853.814-1.708,1.625-2.529,2.473a2.113,2.113,0,0,0-.43.851c-.31,1.033-.582,2.076-.875,3.115a.328.328,0,0,1-.5.224c-.556-.321-1.077-.7-1.627-1.039a.959.959,0,0,0-1.2.045c-1.1,1.009-2.662,1.367-3.565,2.677-.362.522-1.3.267-1.536-.418a1.912,1.912,0,0,0-1.826-1.534,14.19,14.19,0,0,1-1.893-.421,1.254,1.254,0,0,0-1.576.768c-.211.5-.365,1.015-.595,1.5-.469.986-1.237,1.652-1.474,1.334-.472-.631-.145-1.229.108-1.821a17.685,17.685,0,0,0,.755-1.79,1.562,1.562,0,0,0-.567-1.736.931.931,0,0,0-1.4.159c-.268.582-.459,1.2-.739,1.775a.638.638,0,0,1-.55.2.707.707,0,0,1-.471-.37,2.063,2.063,0,0,1-.137-.931,7.094,7.094,0,0,0,.084-2.578c-.075-.293-.164-.582-.247-.873a4.382,4.382,0,0,0-.825.951,5.047,5.047,0,0,0-.461,2.848,7.037,7.037,0,0,1-.293,3.2c-.051.163-.3.416-.392.39-1.833-.532-.848,1.359-1.547,1.779a1.961,1.961,0,0,1-.54.216c-.034.008-.158-.164-.167-.258a8.624,8.624,0,0,1,1.032-5.3,23.79,23.79,0,0,0,1.9-4.818,1,1,0,0,0-.019-.634.77.77,0,0,0-.437-.406.639.639,0,0,0-.566.119c-.4.63-.716,1.307-1.112,1.936-.069.111-.378.094-.577.091a.42.42,0,0,1-.258-.175.658.658,0,0,1-.126-.3,3.954,3.954,0,0,1-.131-.957c.229-2.906.005-5.846.665-8.72a1.246,1.246,0,0,0,.006-.643,2.009,2.009,0,0,0-.429-.8c-.3-.3-.613-.025-.839.175a3.453,3.453,0,0,0-1.192,1.883,1,1,0,0,1-.159.267c-.076-.134-.231-.276-.218-.4a25.1,25.1,0,0,0,.242-4.831c-.089-1.066-.291-2.124-.476-3.18-.04-.225-.284-.241-.5-.069a10,10,0,0,1-1.015.786.741.741,0,0,1-.9-.061,1.517,1.517,0,0,1-.609-1.1.52.52,0,0,1,.051-.308c.9-1.126.747-2.356.536-3.679-.34-2.13-.518-4.288-.719-6.439a18.644,18.644,0,0,1-.043-2.6,7.18,7.18,0,0,0-.311-2.879,3.3,3.3,0,0,1,.392-2.8c.156-.283.39-.522.543-.806a4.122,4.122,0,0,0,.257-4.036,3.823,3.823,0,0,1,.087-4,7.011,7.011,0,0,0,.517-1.528,4.771,4.771,0,0,0-.347-4.053c-.654-1.09-.724-2.47-1.678-3.469a2.332,2.332,0,0,1-.463-1.507,20.225,20.225,0,0,1,.319-5.151,2.384,2.384,0,0,0-.318-2.167c-.516-.677-.051-1.481-.293-2.182-.043-.122-.424-.274-.509-.212-.854.6-1.681,1.234-2.514,1.861a3.243,3.243,0,0,1,.037-1.173c.274-.7.713-1.328,1.038-2.008a1.143,1.143,0,0,0-.145-1.478A3.8,3.8,0,0,1,56.03,54.83c.226-.834.427-1.676.707-2.491a2.118,2.118,0,0,0-.28-2.4,1.079,1.079,0,0,1-.064-1.219c.41-.875.8-1.757,1.25-2.613a3.289,3.289,0,0,1,.766-1.015c.9-.741,1.922-1.354,1.808-2.78-.019-.233.36-.513.584-.744a10.4,10.4,0,0,1,1.39-1.35,5.669,5.669,0,0,0,2.017-3.221,2.8,2.8,0,0,0-.914-3.208,19,19,0,0,1-2.72-2.753,6.4,6.4,0,0,1-1.3-2.569c-.229-.944-.472-1.885-.756-2.811s-.742-1.13-1.744-.769a3.163,3.163,0,0,1-2.1.339,17.836,17.836,0,0,1,1.08-2.234,6.718,6.718,0,0,0,.913-3.95c0-.242-.472-.506-.746-.4-.437.174-.866.371-1.3.561q.954-2.157,1.907-4.311c.349-.787.76-1.554,1.05-2.363a4.716,4.716,0,0,1,1.1-1.565c.779-.855.631-1.406-.418-1.943-.1-.049-.214-.052-.307-.1-.466-.256-.585-.76-.233-1.03a18.134,18.134,0,0,1,2.09-1.533,8.732,8.732,0,0,0,3.252-3.083A4.941,4.941,0,0,1,65.246,1.4,15.721,15.721,0,0,1,69.578.112a6.933,6.933,0,0,1,6.2,2.025c.706.658,1.311,1.426,2,2.1.456.448,1,.807,1.472,1.239a.955.955,0,0,1,.325,1.147,3.08,3.08,0,0,0,.2,2.5,11.078,11.078,0,0,0,1.747,2.717,3.047,3.047,0,0,1,.494.828c.106.284.222.681-.234.786a1.34,1.34,0,0,0-1.247,1.555c.14,2.151-.341,4.316.182,6.467a1.975,1.975,0,0,1-.511,1.8c-.285.323-.53.683-.807,1.015a2.593,2.593,0,0,0-.561,1.489,16.48,16.48,0,0,0,.037,5.811.958.958,0,0,1-.028.635,1.864,1.864,0,0,1-.591.673c-.185.123-.636-.329-.612-.615.043-.535.125-1.066.182-1.6a1.223,1.223,0,0,0-.483-1.14c-.209-.149-.776-.186-.857-.063-1.173,1.8-2.538,3.515-2.951,5.718a9.539,9.539,0,0,1-.5,1.877,1.587,1.587,0,0,0,.552,2.243,2.673,2.673,0,0,1,.795.984,35.594,35.594,0,0,1,2.483,6.318,11.341,11.341,0,0,1,.39,2.558c.087,1.4.134,2.813.118,4.218-.033,2.709-.082,5.423-1.589,7.84a4.115,4.115,0,0,0-.332.913,3.3,3.3,0,0,0,.1,2.529c.231.489.434.991.655,1.483a3.14,3.14,0,0,1-.509,3.345,5.558,5.558,0,0,1-.878.949A6.822,6.822,0,0,0,73.2,72.875a4.064,4.064,0,0,0,.31,4.585,9.438,9.438,0,0,0,.561.795,12.158,12.158,0,0,1,2.866,6.764,27.472,27.472,0,0,1,.519,7.1,15.779,15.779,0,0,0,.292,3.868,7.756,7.756,0,0,1-.1,3.19,4.941,4.941,0,0,0,.914,4.579c.739.9.913,2.173,1.751,3.044.36,2.024,1.922,3.343,2.929,4.986a2.443,2.443,0,0,0,2.1,1.286,5.426,5.426,0,0,1,1.863.513,3.583,3.583,0,0,0,3.1.266,1.9,1.9,0,0,1,1.229.181,5.693,5.693,0,0,1,2.028,1.583c.431.459.814.5,1.076.087,1.1-1.716,3.134-2.241,4.494-3.624a2.017,2.017,0,0,1,1.829-.5,3.527,3.527,0,0,0,3.245-1.017,2.4,2.4,0,0,1,.895-.363,2.071,2.071,0,0,0,1.223-1,5.556,5.556,0,0,1,4.479-2.819,1.038,1.038,0,0,0,.963-.732,2.686,2.686,0,0,1,1.531-1.564,9.644,9.644,0,0,0,3.717-3.045,3.2,3.2,0,0,1,2.114-1.4,14.33,14.33,0,0,0,3.04-1.082,2.244,2.244,0,0,1,2.425.408,14.9,14.9,0,0,1,5.155,7.668c.948,3.636.341,6.934-2.264,9.629a3.117,3.117,0,0,0-.682,3.768,18.219,18.219,0,0,1,.708,2.155,12.715,12.715,0,0,1-.389,6.4,10.819,10.819,0,0,1-.682,1.818,1.764,1.764,0,0,0-.061,1.557c1.166,2.492.873,5.036.362,7.617a13.122,13.122,0,0,1-2.308,5.656,4.156,4.156,0,0,0-.968,3.319,4.061,4.061,0,0,1-.037,1.608,3.551,3.551,0,0,1-.755,1.394,1.618,1.618,0,0,1-1.2.618A1.574,1.574,0,0,1,120.089,151.141ZM66.117,34.563c-.234.141-.524.49-.5.712a3.23,3.23,0,0,1-.668,2.931.92.92,0,0,0-.185.6.853.853,0,0,0,.2.561.681.681,0,0,0,.558.2c.784-.329,1.525-.765,2.32-1.064a3.6,3.6,0,0,1,2.453-.354c.107.005.213.015.319.016.864.01,1.133-.173,1.326-1.039a19.722,19.722,0,0,0,.355-2.2,3.694,3.694,0,0,0-.136-.945c-.049-.3-.457-.588-.7-.47-1.15.555-2.291,1.13-3.444,1.678-.462.219-.789.014-1.062-.392a.682.682,0,0,0-.554-.311A.541.541,0,0,0,66.117,34.563Zm-19.2,108.305a3.02,3.02,0,0,1,.336-.756c.077.064.2.115.224.193a1.111,1.111,0,0,1,.068.563c-.044.171-.215.31-.33.464C47.108,143.176,46.894,143,46.916,142.868Zm.866-2.8a.472.472,0,0,1-.169-.25c-.212-1.085.35-2.025.6-3.023.023-.089.131-.157.2-.235.086.148.258.309.242.445-.061.512-.185,1.015-.306,1.63-.1.389-.229.884-.371,1.374-.01.03-.109.067-.163.067A.047.047,0,0,1,47.782,140.065Zm20.651-2.806c0-.156.168-.306.262-.459l.278.462-.293.456C68.591,137.565,68.43,137.409,68.432,137.259Zm20.058-1.376a2.852,2.852,0,0,1-.063-.606,1.892,1.892,0,0,1,.122-.59c.067-.115.27-.168.423-.205.041-.009.176.137.176.213a7.419,7.419,0,0,1-.059,1.2c-.028.18-.2.336-.31.5A2.752,2.752,0,0,1,88.491,135.883Zm-33.172-.365a.837.837,0,0,1-.186-.581,14.2,14.2,0,0,0,.086-4.175,5.318,5.318,0,0,1,.1-1.6,14.073,14.073,0,0,0,.057-3.217,6.92,6.92,0,0,1,.455-3.8c.08-.177.277-.3.421-.449a1.666,1.666,0,0,1,.273.473,11.83,11.83,0,0,1,.091,1.238,11.227,11.227,0,0,1-.352,2.28,7.935,7.935,0,0,0-.338,3.491,8.967,8.967,0,0,1,.08,1.288,7.513,7.513,0,0,0,.39,3.794,1.228,1.228,0,0,1-.544,1.407.158.158,0,0,1-.1.025A.726.726,0,0,1,55.319,135.518Zm4.849-5.777a1.408,1.408,0,0,1-.68-.572,1.45,1.45,0,0,1-.1-.912,3.123,3.123,0,0,1,.923-1.621c.229-.219.664-.246.8.012.194.365.355.749.491,1.036a3.071,3.071,0,0,1-.915,1.758c-.137.125-.36.307-.484.307A.093.093,0,0,1,60.168,129.741Zm1.757-5a1.481,1.481,0,0,1,.184-1.492.73.73,0,0,1,.533-.245c.148.023.277.253.387.411a.924.924,0,0,1,.068.309,1.316,1.316,0,0,1-.453,1.128,1.158,1.158,0,0,1-.55.141h0C62.04,125,61.949,124.839,61.925,124.744Zm-49.606-15.26a.6.6,0,0,1,.695-.332,3.415,3.415,0,0,1-.24.788c-.034.06-.18.059-.325.058-.065,0-.131,0-.185,0A1.336,1.336,0,0,1,12.318,109.484Zm.764-.311q-.035-.012-.069-.02l.01-.038Zm39.1-.787c.014-.08.112-.144.171-.216l.142.238c-.029.086-.032.215-.089.248a.232.232,0,0,1-.111.034C52.2,108.69,52.15,108.579,52.185,108.385ZM50.508,73.7c-.072-.042-.169-.155-.155-.211a1.588,1.588,0,0,1,1.067-1.257c-.051.569.01,1.185-.656,1.49a.229.229,0,0,1-.094.018A.349.349,0,0,1,50.508,73.7Zm.922-1.56.071-.068c0,.046,0,.092,0,.137l-.08.022Q51.424,72.182,51.43,72.136Zm.591-1.338a1.547,1.547,0,0,1-.52,1.27C51.487,71.568,51.32,71.005,52.021,70.8Zm-.009-.08.073.063-.064.017Q52.017,70.758,52.012,70.717Zm0,0,.079-.056q0,.059-.006.119Zm1.271-2.8a4.386,4.386,0,0,0,.653-.93,4.586,4.586,0,0,1-1.844,3.672A3.82,3.82,0,0,1,53.283,67.919Zm.662-1.11.066.065-.065-.066L54,66.8q.005.035.012.071-.038.056-.075.115Q53.941,66.9,53.944,66.81Zm.479-1.385c.132-.114.437-.228.514-.163a.743.743,0,0,1,.217.555c-.056.813-.125.879-1.156.986A1.413,1.413,0,0,1,54.423,65.425Zm1.626-1.734.077.013-.2,0Zm0,0,.077-.058q0,.035,0,.071Zm25.424-15.6c.016-.07.121-.121.185-.18l.128.237c-.029.077-.037.2-.088.221a.267.267,0,0,1-.1.022C81.484,48.395,81.432,48.284,81.473,48.094ZM86.1,44.852l.147.024-.1.183ZM58.316,42.017a.6.6,0,0,1-.271-.481c.01-.385.226-.547.608-.562.151.106.392.183.438.322.1.319-.3.745-.642.745A.368.368,0,0,1,58.316,42.017ZM52.075,28.9a.372.372,0,0,1-.194-.247c-.02-1.584.328-2.028,2.083-2.656a.771.771,0,0,1,.038.253,4.224,4.224,0,0,1-1.618,2.664.169.169,0,0,1-.113.031A.459.459,0,0,1,52.075,28.9Zm1.875-2.969.053.052L53.964,26C53.959,25.976,53.954,25.954,53.95,25.933Zm0,0a1.546,1.546,0,0,0,.187-.094L54,25.985Zm.592-.539a.955.955,0,0,1-.406.444Zm.061-.2.078.027-.018.038h0l-.121.133A.983.983,0,0,0,54.6,25.2Zm-.812-4.214a.272.272,0,0,1-.163-.467c.278-.383.589-.744.889-1.112a1.468,1.468,0,0,1-.484,1.5.4.4,0,0,1-.207.081A.135.135,0,0,1,53.792,20.982Zm.71-1.722.128-.056-.058.13h0l-.055.067Q54.511,19.331,54.5,19.26Z" transform="translate(0.522 0.498)" fill="#faa530" stroke="rgba(0,0,0,0)" stroke-miterlimit="10" stroke-width="1"/>
</svg>
