<?xml version="1.0" encoding="utf-8"?>
<!-- Generator: Adobe Illustrator 25.1.0, SVG Export Plug-In . SVG Version: 6.00 Build 0)  -->
<svg version="1.1" id="Layer_1" xmlns="http://www.w3.org/2000/svg" xmlns:xlink="http://www.w3.org/1999/xlink" x="0px" y="0px"
	 viewBox="0 0 241.7 39.8" style="enable-background:new 0 0 241.7 39.8;" xml:space="preserve">
<style type="text/css">
	.st0{fill:#faa530;}
</style>
<path class="st0" d="M177.4,0h-13.7H0v12.4v20.1c0,4,3.3,7.3,7.3,7.3s7.3-3.3,7.3-7.3v-4c0.1-1.1,0.7-2.8,3.6-2.8h5.5
	c2.3,0,4.1-1.8,4.1-4.1V20v-5.7c0-0.8,0.4-1.5,0.9-1.9h35.4c0.4,0.4,0.7,1,0.7,1.7v0.6V24c0,4,3.3,7.3,7.3,7.3h0
	c4,0,7.3-3.3,7.3-7.3v-9.4v-0.9c0-0.5,0.2-1,0.6-1.4h18c0.7,0.5,1.2,1.4,1.2,2.3V18c0,1.6,1.3,2.8,2.8,2.8h5.8c1,0,1.9,0.8,1.9,1.9
	v7.4c0,4,3.3,7.3,7.3,7.3s7.3-3.3,7.3-7.3v-7.4c0-1.2,1-2.2,2.2-2.2h5.6c2.3,0,4.1-1.9,4.1-4.1v-2.6c0-0.5,0.2-1,0.5-1.4h15.9
	c0.4,0.5,0.7,1.1,0.7,1.8v0.5v5.2c0,4,3.3,7.3,7.3,7.3h0c3.7,0,6.7-2.7,7.2-6.3l0,0v0c0-0.3,0.1-0.7,0.1-1v-0.4
	c0.2-0.7,0.8-1.2,1.6-1.2h5.4c2,0,3.5-1.6,3.5-3.5c0-1.8,1.5-3.3,3.3-3.3h10.3c1.7,0,3.1,1.4,3.1,3.1v0.1c0,2.2,1.8,3.9,3.9,3.9h4.5
	c1.7,0,3,1.3,3,3v1.4c0,2.1,1.7,3.8,3.8,3.8h4.8c1.3,0,2.3,1,2.3,2.3v0.6v0.5c0,3.6,3,6.6,6.6,6.6s6.6-3,6.6-6.6v-9
	c0.4-0.9,1.3-1.5,2.3-1.5h4.8c2.1,0,3.7-1.7,3.7-3.7V0H177.4z"/>
</svg>
