<svg xmlns="http://www.w3.org/2000/svg" width="82.405" height="49.087" viewBox="0 0 82.405 49.087">
  <g id="Group_132" data-name="Group 132" transform="translate(-1992.679 -606.53)">
    <g id="Group_118" data-name="Group 118" transform="translate(1994.454 609.7)">
      <path id="Path_1893" data-name="Path 1893" d="M2035.163,655.484h-.02l-37.656-1.584a.469.469,0,0,1-.448-.469V629.355a.471.471,0,0,1,.15-.344l15.749-14.572a.47.47,0,0,1,.476-.1l21.906,7.814a.468.468,0,0,1,.311.441v32.419a.468.468,0,0,1-.468.468Zm-37.188-2.5,36.719,1.545v-31.6l-21.328-7.608-15.391,14.241Z" transform="translate(-1997.039 -614.315)" fill="#f1f0eb"/>
    </g>
    <g id="Group_119" data-name="Group 119" transform="translate(1992.679 606.53)">
      <path id="Path_1894" data-name="Path 1894" d="M2035.715,655.617l-42.6-2.766a.468.468,0,0,1-.438-.467V623.79a.472.472,0,0,1,.143-.337l17.407-16.789a.458.458,0,0,1,.471-.108l25.1,8.235.016.005.016.007,38.955,15.309a.47.47,0,0,1,.3.436v19.747a.467.467,0,0,1-.41.465Zm-42.1-3.672,42.072,2.74,38.46-4.8V630.867l-38.019-14.942.173,37.5a.468.468,0,0,1-.466.47h0a.468.468,0,0,1-.468-.466l-.175-37.852-24.515-8.044-17.06,16.457Z" transform="translate(-1992.679 -606.53)" fill="#f1f0eb"/>
    </g>
    <g id="Group_120" data-name="Group 120" transform="translate(2019.082 613.207)">
      <path id="Path_1895" data-name="Path 1895" d="M2057.764,636.6a.235.235,0,0,1-.234-.234v-13.2a.234.234,0,0,1,.469,0v12.93l13.114-1.862a.234.234,0,1,1,.066.462l-13.381,1.9Z" transform="translate(-2057.53 -622.93)" fill="#f1f0eb"/>
    </g>
    <g id="Group_121" data-name="Group 121" transform="translate(2019.319 627.885)">
      <path id="Path_1896" data-name="Path 1896" d="M2058.346,681.1a.235.235,0,0,1-.234-.234v-20.17a.233.233,0,0,1,.208-.232l13.025-1.478a.227.227,0,0,1,.259.206.234.234,0,0,1-.206.259L2058.58,660.9v19.96A.234.234,0,0,1,2058.346,681.1Z" transform="translate(-2058.112 -658.982)" fill="#f1f0eb"/>
    </g>
    <g id="Group_122" data-name="Group 122" transform="translate(1997.889 611.16)">
      <path id="Path_1897" data-name="Path 1897" d="M2005.943,656.238a.468.468,0,0,1-.468-.469V632.75a.468.468,0,0,1,.153-.346l15.762-14.379a.468.468,0,0,1,.631.692l-15.609,14.24v22.813A.468.468,0,0,1,2005.943,656.238Z" transform="translate(-2005.475 -617.902)" fill="#f1f0eb"/>
    </g>
    <g id="Group_123" data-name="Group 123" transform="translate(1994.688 624.506)">
      <path id="Path_1898" data-name="Path 1898" d="M2001.283,652.418a.236.236,0,0,1-.081-.015l-3.434-1.268a.234.234,0,1,1,.162-.439l3.435,1.268a.234.234,0,0,1-.081.454Z" transform="translate(-1997.614 -650.682)" fill="#f1f0eb"/>
    </g>
    <g id="Group_124" data-name="Group 124" transform="translate(1998.123 615.896)">
      <path id="Path_1899" data-name="Path 1899" d="M2006.284,643.458a.234.234,0,0,1-.032-.467l10.573-1.449V629.769a.234.234,0,1,1,.468,0v11.977a.234.234,0,0,1-.2.232l-10.775,1.478Z" transform="translate(-2006.05 -629.535)" fill="#f1f0eb"/>
    </g>
    <g id="Group_125" data-name="Group 125" transform="translate(1998.183 630.631)">
      <path id="Path_1900" data-name="Path 1900" d="M2017.266,684.78a.234.234,0,0,1-.234-.234V666.223l-10.575,1.172a.228.228,0,0,1-.258-.207.233.233,0,0,1,.206-.258l10.835-1.2a.225.225,0,0,1,.182.057.234.234,0,0,1,.078.175v18.585A.234.234,0,0,1,2017.266,684.78Z" transform="translate(-2006.197 -665.727)" fill="#f1f0eb"/>
    </g>
    <g id="Group_126" data-name="Group 126" transform="translate(2035.544 647.292)">
      <path id="Path_1901" data-name="Path 1901" d="M2098.433,710.333a.468.468,0,0,1-.032-.936l38.6-2.746a.488.488,0,0,1,.5.434.469.469,0,0,1-.435.5l-38.6,2.746Z" transform="translate(-2097.966 -706.65)" fill="#f1f0eb"/>
    </g>
    <g id="Group_127" data-name="Group 127" transform="translate(2064.645 632.099)">
      <path id="Path_1902" data-name="Path 1902" d="M2174.888,679.621h0l-5.211-.105a.235.235,0,0,1-.229-.234v-9.715a.234.234,0,0,1,.306-.223l5.21,1.689a.235.235,0,0,1,.162.223v8.131a.234.234,0,0,1-.234.234Zm-4.977-.569,4.743.1v-7.722l-4.743-1.537Z" transform="translate(-2169.443 -669.332)" fill="#f1f0eb"/>
    </g>
    <g id="Group_131" data-name="Group 131" transform="translate(2042.741 626.058)">
      <g id="Group_128" data-name="Group 128">
        <path id="Path_1903" data-name="Path 1903" d="M2116.111,678.555a.468.468,0,0,1-.469-.468V654.961a.468.468,0,0,1,.577-.455l10.657,2.534a.468.468,0,0,1,.36.456v20.169a.468.468,0,0,1-.937,0v-19.8l-9.721-2.312v22.533A.468.468,0,0,1,2116.111,678.555Z" transform="translate(-2115.642 -654.494)" fill="#f1f0eb"/>
      </g>
      <g id="Group_129" data-name="Group 129" transform="translate(0.281 4.518)">
        <path id="Path_1904" data-name="Path 1904" d="M2127.186,667.83l-.038,0-10.62-1.77a.235.235,0,0,1,.077-.463l10.62,1.77a.234.234,0,0,1-.038.466Z" transform="translate(-2116.331 -665.592)" fill="#f1f0eb"/>
      </g>
      <g id="Group_130" data-name="Group 130" transform="translate(3.489 1.2)">
        <path id="Path_1905" data-name="Path 1905" d="M2124.445,679.922a.234.234,0,0,1-.234-.234V657.674a.234.234,0,0,1,.468,0v22.014A.234.234,0,0,1,2124.445,679.922Z" transform="translate(-2124.211 -657.44)" fill="#f1f0eb"/>
      </g>
    </g>
  </g>
</svg>
