<svg xmlns="http://www.w3.org/2000/svg" xmlns:xlink="http://www.w3.org/1999/xlink" width="44" height="24" viewBox="0 0 44 24">
  <defs>
    <clipPath id="clip-path">
      <rect id="Rectangle_170" data-name="Rectangle 170" width="44" height="24" transform="translate(546 5681.323)" fill="#e69c37"/>
    </clipPath>
  </defs>
  <g id="left_drop" transform="translate(-546 -5681.323)" clip-path="url(#clip-path)">
    <path id="Path_14503" data-name="Path 14503" d="M-1664.924-475.567H-1812.2v59.75a7.364,7.364,0,0,0,7.364,7.364h0a7.363,7.363,0,0,0,7.364-7.364v-3.98a5.374,5.374,0,0,1,5.374-5.374h5.175a4.179,4.179,0,0,1,4.179,4.179h0a7.364,7.364,0,0,0,7.364,7.364h0a7.364,7.364,0,0,0,7.364-7.364V-439.7a5.373,5.373,0,0,1,5.374-5.373h18.708a5.374,5.374,0,0,1,5.374,5.373v.4a7.363,7.363,0,0,0,7.363,7.364h0a7.364,7.364,0,0,0,7.364-7.364h0a2.786,2.786,0,0,1,2.786-2.786h6.568a5.374,5.374,0,0,1,5.373,5.374v2.985a7.364,7.364,0,0,0,7.364,7.364h1.99a5.373,5.373,0,0,1,5.373,5.373v7.414a7.364,7.364,0,0,0,7.364,7.364h0a7.364,7.364,0,0,0,7.364-7.364V-428.5a5.374,5.374,0,0,1,5.373-5.374h3.98a5.373,5.373,0,0,1,5.373,5.374h0a7.364,7.364,0,0,0,7.364,7.364h0a7.364,7.364,0,0,0,7.364-7.364v-47.063Z" transform="translate(2358.197 6111.891)" fill="#faa530"/>
  </g>
</svg>
