<?xml version="1.0" encoding="utf-8"?>
<!-- Generator: Adobe Illustrator 25.1.0, SVG Export Plug-In . SVG Version: 6.00 Build 0)  -->
<svg version="1.1" id="Layer_1" xmlns="http://www.w3.org/2000/svg" xmlns:xlink="http://www.w3.org/1999/xlink" x="0px" y="0px"
	 viewBox="0 0 219.1 212" style="enable-background:new 0 0 219.1 212;" xml:space="preserve">
<style type="text/css">
	.st0{fill:none;}
	.st1{fill:none;stroke:#FAA530;}
	.st2{enable-background:new    ;}
	.st3{fill:#FAA530;}
	.st4{fill:none;stroke:#FAA530;stroke-dasharray:7;}
</style>
<g id="Group_202" transform="translate(-610.705 -2840)">
	<g id="Rectangle_123" transform="translate(635 2840)">
		<path class="st0" d="M5,0h166c2.8,0,5,2.2,5,5v202c0,2.8-2.2,5-5,5H5c-2.8,0-5-2.2-5-5V5C0,2.2,2.2,0,5,0z"/>
		<path class="st1" d="M5,0.5h166c2.5,0,4.5,2,4.5,4.5v202c0,2.5-2,4.5-4.5,4.5H5c-2.5,0-4.5-2-4.5-4.5V5C0.5,2.5,2.5,0.5,5,0.5z"/>
	</g>
	<g class="st2">
		<path class="st3" d="M689.1,2955c2,0,2.8,0.9,2.8,2.4v4.2c0,1.5-0.8,2.4-2.8,2.4h-2.6v4.9h-3.1v-14H689.1z M688.8,2957.9
			c0-0.4-0.2-0.5-0.6-0.5h-1.7v4.5h1.7c0.4,0,0.6-0.2,0.6-0.5V2957.9z"/>
		<path class="st3" d="M700.4,2963.8h-0.5v5.2h-3.1v-14h5.8c2,0,2.8,0.9,2.8,2.4v3.9c0,1.2-0.5,2-1.8,2.3l2.5,5.3h-3.4L700.4,2963.8
			z M699.8,2961.5h1.7c0.4,0,0.6-0.1,0.6-0.5v-3.1c0-0.4-0.2-0.5-0.6-0.5h-1.7V2961.5z"/>
		<path class="st3" d="M713.5,2955v14h-3.1v-14H713.5z"/>
		<path class="st3" d="M724,2959.9v-2.2c0-0.4-0.2-0.5-0.6-0.5h-0.9c-0.4,0-0.6,0.2-0.6,0.5v8.6c0,0.4,0.2,0.5,0.6,0.5h0.9
			c0.4,0,0.6-0.1,0.6-0.5v-2.1h3.2v2.4c0,1.5-0.8,2.4-2.8,2.4h-2.8c-2,0-2.8-0.9-2.8-2.4v-9.2c0-1.5,0.8-2.4,2.8-2.4h2.8
			c2,0,2.8,0.9,2.8,2.4v2.5H724z"/>
		<path class="st3" d="M735.2,2955v14h-3.1v-14H735.2z"/>
		<path class="st3" d="M749.3,2955v14h-2.8l-3.1-8.4v8.4h-2.9v-14h2.8l3,8.4v-8.4H749.3z"/>
		<path class="st3" d="M759.7,2959.5v-1.8c0-0.4-0.2-0.5-0.6-0.5h-0.9c-0.4,0-0.6,0.2-0.6,0.5v8.6c0,0.4,0.2,0.5,0.6,0.5h0.9
			c0.4,0,0.6-0.1,0.6-0.5v-2.7h-1.1v-2.1h4.2v5.1c0,1.5-0.8,2.4-2.8,2.4h-2.8c-2,0-2.8-0.9-2.8-2.4v-9.2c0-1.5,0.8-2.4,2.8-2.4h2.8
			c2,0,2.8,0.9,2.8,2.4v2.1H759.7z"/>
	</g>
	<g class="st2">
		<path class="st3" d="M665.8,2979.9v-2.2c0-0.4-0.2-0.5-0.6-0.5h-0.9c-0.4,0-0.6,0.2-0.6,0.5v8.6c0,0.4,0.2,0.5,0.6,0.5h0.9
			c0.4,0,0.6-0.1,0.6-0.5v-2.1h3.2v2.4c0,1.5-0.8,2.4-2.8,2.4h-2.8c-2,0-2.8-0.9-2.8-2.4v-9.2c0-1.5,0.8-2.4,2.8-2.4h2.8
			c2,0,2.8,0.9,2.8,2.4v2.5H665.8z"/>
		<path class="st3" d="M679.8,2986.5h-3.2l-0.5,2.5H673l3.2-14h4l3.3,14h-3.2L679.8,2986.5z M679.3,2984.2l-1.1-5.9l-1.1,5.9H679.3z
			"/>
		<path class="st3" d="M694.9,2986.7v2.3h-7.2v-14h3.1v11.7H694.9z"/>
		<path class="st3" d="M704.4,2979.9v-2.2c0-0.4-0.2-0.5-0.6-0.5h-0.9c-0.4,0-0.6,0.2-0.6,0.5v8.6c0,0.4,0.2,0.5,0.6,0.5h0.9
			c0.4,0,0.6-0.1,0.6-0.5v-2.1h3.2v2.4c0,1.5-0.8,2.4-2.8,2.4h-2.8c-2,0-2.8-0.9-2.8-2.4v-9.2c0-1.5,0.8-2.4,2.8-2.4h2.8
			c2,0,2.8,0.9,2.8,2.4v2.5H704.4z"/>
		<path class="st3" d="M720.9,2975v11.6c0,1.5-0.8,2.4-2.8,2.4h-2.9c-2,0-2.8-0.9-2.8-2.4V2975h3.1v11.1c0,0.4,0.2,0.5,0.6,0.5h1.1
			c0.4,0,0.6-0.2,0.6-0.5V2975H720.9z"/>
		<path class="st3" d="M733.4,2986.7v2.3h-7.2v-14h3.1v11.7H733.4z"/>
		<path class="st3" d="M743.6,2986.5h-3.2l-0.5,2.5h-3.1l3.2-14h4l3.3,14H744L743.6,2986.5z M743.1,2984.2l-1.1-5.9l-1.1,5.9H743.1z
			"/>
		<path class="st3" d="M759,2977.3h-2.6v11.7h-3.1v-11.7h-2.6v-2.3h8.3V2977.3z"/>
		<path class="st3" d="M769,2975c2,0,2.8,0.9,2.8,2.4v9.1c0,1.5-0.8,2.4-2.8,2.4h-2.9c-2,0-2.8-0.9-2.8-2.4v-9.1
			c0-1.5,0.8-2.4,2.8-2.4H769z M768.7,2977.9c0-0.4-0.2-0.5-0.6-0.5H767c-0.4,0-0.6,0.2-0.6,0.5v8.3c0,0.4,0.2,0.5,0.6,0.5h1.1
			c0.4,0,0.6-0.2,0.6-0.5V2977.9z"/>
		<path class="st3" d="M780.7,2983.8h-0.5v5.2H777v-14h5.8c2,0,2.8,0.9,2.8,2.4v3.9c0,1.2-0.5,2-1.8,2.3l2.5,5.3h-3.4L780.7,2983.8z
			 M780.1,2981.5h1.7c0.4,0,0.6-0.1,0.6-0.5v-3.1c0-0.4-0.2-0.5-0.6-0.5h-1.7V2981.5z"/>
	</g>
	<g id="Group_110" transform="translate(693 2892)">
		<g id="Group_82" transform="translate(52 30)">
			<g id="Group_81">
				<path id="Path_111" class="st3" d="M5,10h3V0H5C2.2,0,0,2.2,0,5S2.2,10,5,10z M6,8H5C3.3,8,2,6.7,2,5s1.3-3,3-3h1V8z"/>
			</g>
		</g>
		<g id="Group_84" transform="translate(58 38)">
			<g id="Group_83">
				<rect id="Rectangle_116" x="0" class="st3" width="2" height="4"/>
			</g>
		</g>
		<g id="Group_86" transform="translate(26.586 30)">
			<g id="Group_85">
				<path id="Path_112" class="st3" d="M0,10h33.4V0H10L0,10z M31.4,8H4.8l6-6h20.6V8z"/>
			</g>
		</g>
		<g id="Group_88">
			<g id="Group_87">
				<path id="Path_113" class="st3" d="M11,42h16.4L42,27.4V14.6l-8.9-8.9c-0.3-0.3-0.6-0.6-1-0.9c-8.1-7-20.3-6.2-27.3,1.8
					C1.7,10.2,0,14.7,0,19.4V31C0,37.1,4.9,42,11,42z M26.6,40H11c-5,0-9-4-9-9V19.4C2,9.8,9.8,2,19.4,2c4.2,0,8.3,1.5,11.4,4.3
					c0.3,0.3,0.6,0.5,0.9,0.8l8.3,8.3v11.2L26.6,40z"/>
			</g>
		</g>
		<g id="Group_90" transform="translate(30.037 3.466)">
			<g id="Group_89">
				<path id="Path_114" class="st3" d="M8.9,10.9l0.7-0.7c1.8-1.8,1.8-4.6,0-6.4c0,0,0,0,0,0L7.2,1.3c-1.8-1.8-4.6-1.8-6.4,0L0,2.1
					l0.8,0.7c0.3,0.3,0.6,0.5,0.9,0.8L8.9,10.9z M4,2c0.7,0,1.3,0.3,1.8,0.7l2.5,2.5C8.9,5.9,9.1,7,8.8,7.9L3.1,2.2l0,0
					C3.3,2.1,3.6,2,4,2z"/>
			</g>
		</g>
		<g id="Group_92" transform="translate(9 10)">
			<g id="Group_91">
				<path id="Path_115" class="st3" d="M11.5,23C17.9,23,23,17.9,23,11.5S17.9,0,11.5,0S0,5.1,0,11.5C0,17.8,5.2,23,11.5,23z
					 M11.5,2c5.2,0,9.5,4.3,9.5,9.5S16.7,21,11.5,21S2,16.7,2,11.5C2,6.3,6.3,2,11.5,2z"/>
			</g>
		</g>
		<g id="Group_94" transform="translate(47 36)">
			<g id="Group_93">
				<rect id="Rectangle_117" x="0" class="st3" width="2" height="4"/>
			</g>
		</g>
		<g id="Group_96" transform="translate(41 34)">
			<g id="Group_95">
				<rect id="Rectangle_118" x="0" class="st3" width="2" height="6"/>
			</g>
		</g>
		<g id="Group_98" transform="translate(35 36)">
			<g id="Group_97">
				<rect id="Rectangle_119" x="0" class="st3" width="2" height="4"/>
			</g>
		</g>
	</g>
	<g id="Group_112" transform="translate(18 56)">
		<line id="Line_31" class="st1" x1="601.5" y1="2786.5" x2="601.5" y2="2803.5"/>
		<line id="Line_32" class="st1" x1="610.3" y1="2795" x2="592.7" y2="2795"/>
	</g>
	<g id="Group_113" transform="translate(2374.268 639.312) rotate(45)">
		<line id="Line_31-2" class="st1" x1="601.5" y1="2786.5" x2="601.5" y2="2803.5"/>
		<line id="Line_32-2" class="st1" x1="610.3" y1="2795" x2="592.7" y2="2795"/>
	</g>
	<line id="Line_33" class="st1" x1="644.5" y1="2851" x2="674.5" y2="2851"/>
	<line id="Line_36" class="st1" x1="767" y1="3041" x2="797" y2="3041"/>
	<line id="Line_35" class="st4" x1="823.2" y1="2920.5" x2="823.2" y2="3024.5"/>
	<line id="Line_37" class="st4" x1="619.5" y1="2871.5" x2="619.5" y2="2975.5"/>
	<line id="Line_38" class="st4" x1="762" y1="2851" x2="803" y2="2851"/>
	<line id="Line_39" class="st4" x1="645" y1="3041" x2="686" y2="3041"/>
</g>
</svg>
