<svg xmlns="http://www.w3.org/2000/svg" width="55.517" height="43.525" viewBox="0 0 55.517 43.525">
  <g id="house_2" transform="translate(-1.45 -8.06)">
    <path id="Path_5" data-name="Path 5" d="M18.13,54.47V49.309A4.182,4.182,0,0,1,22.139,45h0a4.182,4.182,0,0,1,4.037,4.309V54.47" transform="translate(-1.503 -3.385)" fill="none" stroke="#fff" stroke-linecap="round" stroke-linejoin="round" stroke-width="1"/>
    <line id="Line_1" data-name="Line 1" x2="51.66" transform="translate(3.955 51.085)" fill="none" stroke="#fff" stroke-linecap="round" stroke-linejoin="round" stroke-width="1"/>
    <line id="Line_2" data-name="Line 2" y1="21.48" transform="translate(35.177 29.596)" fill="none" stroke="#fff" stroke-linecap="round" stroke-linejoin="round" stroke-width="1"/>
    <line id="Line_3" data-name="Line 3" y1="21.48" transform="translate(6.095 29.596)" fill="none" stroke="#fff" stroke-linecap="round" stroke-linejoin="round" stroke-width="1"/>
    <path id="Path_6" data-name="Path 6" d="M38.58,35.36H57.611V53.575" transform="translate(-3.403 -2.489)" fill="none" stroke="#fff" stroke-linecap="round" stroke-linejoin="round" stroke-width="1"/>
    <path id="Path_7" data-name="Path 7" d="M39.323,29.6H1.95L20.636,8.56Z" transform="translate(0 0)" fill="none" stroke="#fff" stroke-linecap="round" stroke-linejoin="round" stroke-width="1"/>
    <path id="Path_8" data-name="Path 8" d="M55.3,33.984H59.37L50.317,20.55H33.2" transform="translate(-2.903 -1.114)" fill="none" stroke="#fff" stroke-linecap="round" stroke-linejoin="round" stroke-width="1"/>
    <line id="Line_4" data-name="Line 4" x2="16.147" transform="translate(34.307 23.945)" fill="none" stroke="#fff" stroke-linecap="round" stroke-linejoin="round" stroke-width="1"/>
    <line id="Line_5" data-name="Line 5" x2="15.176" transform="translate(38.343 28.489)" fill="none" stroke="#fff" stroke-linecap="round" stroke-linejoin="round" stroke-width="1"/>
    <path id="Path_9" data-name="Path 9" d="M15.793,43.542H10.55V37.9a2.54,2.54,0,0,1,2.54-2.54h.163a2.54,2.54,0,0,1,2.54,2.54Z" transform="translate(-0.799 -2.489)" fill="none" stroke="#fff" stroke-linecap="round" stroke-linejoin="round" stroke-width="1"/>
    <path id="Path_10" data-name="Path 10" d="M31.43,35.36h.163a2.54,2.54,0,0,1,2.54,2.54v5.642H28.89V37.9A2.54,2.54,0,0,1,31.43,35.36Z" transform="translate(-2.502 -2.489)" fill="none" stroke="#fff" stroke-linecap="round" stroke-linejoin="round" stroke-width="1"/>
    <line id="Line_6" data-name="Line 6" x2="5.243" transform="translate(9.751 36.327)" fill="none" stroke="#fff" stroke-linecap="round" stroke-linejoin="round" stroke-width="1"/>
    <line id="Line_7" data-name="Line 7" x2="5.243" transform="translate(26.388 36.327)" fill="none" stroke="#fff" stroke-linecap="round" stroke-linejoin="round" stroke-width="1"/>
    <line id="Line_8" data-name="Line 8" x2="5.243" transform="translate(18.015 20.715)" fill="none" stroke="#fff" stroke-linecap="round" stroke-linejoin="round" stroke-width="1"/>
    <path id="Path_11" data-name="Path 11" d="M22.2,18.45h.163a2.54,2.54,0,0,1,2.54,2.54v5.642H19.66V20.99A2.54,2.54,0,0,1,22.2,18.45Z" transform="translate(-1.645 -0.919)" fill="none" stroke="#fff" stroke-linecap="round" stroke-linejoin="round" stroke-width="1"/>
    <path id="Path_12" data-name="Path 12" d="M9.23,22.508V12.24h4.7v4.98" transform="translate(-0.676 -0.342)" fill="none" stroke="#fff" stroke-linecap="round" stroke-linejoin="round" stroke-width="1"/>
    <line id="Line_9" data-name="Line 9" y1="3.61" transform="translate(9.751 47.475)" fill="none" stroke="#fff" stroke-linecap="round" stroke-linejoin="round" stroke-width="1"/>
    <line id="Line_10" data-name="Line 10" y1="3.61" transform="translate(12.509 47.475)" fill="none" stroke="#fff" stroke-linecap="round" stroke-linejoin="round" stroke-width="1"/>
    <line id="Line_11" data-name="Line 11" y1="3.61" transform="translate(28.873 47.475)" fill="none" stroke="#fff" stroke-linecap="round" stroke-linejoin="round" stroke-width="1"/>
    <line id="Line_12" data-name="Line 12" y1="3.61" transform="translate(31.631 47.475)" fill="none" stroke="#fff" stroke-linecap="round" stroke-linejoin="round" stroke-width="1"/>
    <path id="Path_13" data-name="Path 13" d="M44.284,45.67h8.3a2.068,2.068,0,0,1,2.068,2.068v2.821a.907.907,0,0,1-.907.907H43.077a.907.907,0,0,1-.907-.907V47.738a2.068,2.068,0,0,1,2.114-2.068Z" transform="translate(-3.736 -3.447)" fill="none" stroke="#fff" stroke-linecap="round" stroke-linejoin="round" stroke-width="1"/>
    <path id="Path_14" data-name="Path 14" d="M43.88,45.261l.608-3.13a1.061,1.061,0,0,1,1.034-.862h6.223a1.061,1.061,0,0,1,1.034.862l.608,3.13Z" transform="translate(-3.895 -3.038)" fill="none" stroke="#fff" stroke-linecap="round" stroke-linejoin="round" stroke-width="1"/>
    <line id="Line_13" data-name="Line 13" y2="3.102" transform="translate(39.985 47.974)" fill="none" stroke="#fff" stroke-linecap="round" stroke-linejoin="round" stroke-width="1"/>
    <line id="Line_14" data-name="Line 14" y2="3.102" transform="translate(49.492 47.974)" fill="none" stroke="#fff" stroke-linecap="round" stroke-linejoin="round" stroke-width="1"/>
    <line id="Line_15" data-name="Line 15" x2="2.404" transform="translate(38.47 45.098)" fill="none" stroke="#fff" stroke-linecap="round" stroke-linejoin="round" stroke-width="1"/>
    <line id="Line_16" data-name="Line 16" x1="2.286" transform="translate(48.621 45.098)" fill="none" stroke="#fff" stroke-linecap="round" stroke-linejoin="round" stroke-width="1"/>
  </g>
</svg>
