<svg id="zoom-in" xmlns="http://www.w3.org/2000/svg" width="28.125" height="28.125" viewBox="0 0 28.125 28.125">
  <path id="Path_487" data-name="Path 487" d="M19.246,13.773H15.6V10.125H13.773v3.648H10.125V15.6h3.648v3.648H15.6V15.6h3.648Z" transform="translate(-3.184 -2.572)" fill="#fff"/>
  <path id="Path_488" data-name="Path 488" d="M23.635,22.125a11.323,11.323,0,0,0,2.656-7.292A11.458,11.458,0,1,0,14.833,26.292a11.323,11.323,0,0,0,7.292-2.656L30.031,31.5,31.5,30.031Zm-8.8,2.083a9.375,9.375,0,1,1,9.375-9.375A9.375,9.375,0,0,1,14.833,24.208Z" transform="translate(-3.375 -3.375)" fill="#fff"/>
</svg>
