<svg xmlns="http://www.w3.org/2000/svg" xmlns:xlink="http://www.w3.org/1999/xlink" width="1445" height="45.752" viewBox="0 0 1445 45.752">
  <defs>
    <clipPath id="clip-path">
      <rect id="Rectangle_178" data-name="Rectangle 178" width="1445" height="45.752" transform="translate(17237.242 3605.134)" fill="#fff" stroke="#707070" stroke-width="1"/>
    </clipPath>
  </defs>
  <g id="Mask_Group_8" data-name="Mask Group 8" transform="translate(-17237.242 -3605.134)" clip-path="url(#clip-path)">
    <path id="Path_14505" data-name="Path 14505" d="M1481.617,549.867a4.632,4.632,0,0,0-1.67-3.986c.686.665,2.122.117.672-.052.245-.519,2.865-.026,1.558-.72-5.032-.12,2.433-1.45-3.049-2.285,4.141-1.758,2.218-1.025.375-2.848-.383.626-1.8.59-3.34,1.025,1.427.91-6.325-.193-1.335-.2.257-.47-.995-1.789.223-.926,3.872.73-.287.078,4.454,0,.456-.618,1.247-1.171,3.788-1.385-.082-.634-3.535.428-2.674-.206,2.236.151,2.28-.827,1.114-1.028-.357.84-1.343-.1.893-.41,1.012-.4-1.686-.788.666-1.182-.094-.389-8.11.443-6.012-.616.568.767,1.949-.12,4.009-.206.666-.762-7.465-.206-3.342-.976,3.547.459,4.045.579,4.9-.36-2.086.394-4.38-.389-1.779-.154,5.358-2-11.313.433-5.347-.822,4.936-.5.755-.47,2.9-1.08,1.11-.665,1.457.527,2-.1.679,1.419,3.248-1.6.67-1.231-3.26,1.6-8.8-.373-8.242,1.591-1.046-.936-.367.9.67-.412,1.477.7.147.115,2.226.258,1.849.284-8.262,1.6-2.447,3.185,1.819-.553-.084.48-.672.769,1.395.047,2.467-.128,2.449.566-6.769,3.524-7.353-9.849-.446-8.423-4.183-1.377-4.274-.383-4.422-1.539-1.028-1,14.278,1.641,10.884-.566-5.789-.141,3.814-.175,1.114-.72-1.036-2.1-2.846.788-6.237.822.594-1.9-4.113.021-5.763-.214.709-4.153.8-.232,9.324-1.583-2.862-1.489,4.549-.67,2.009-2-5.647.37-.484-.514-2.451-.514-.4-.018-6.008-.775-5.346-.36,4.163.916-.57.026-2.449.1-1.06-.683,7.092-.944,2.9-.412.289.245,1.086-.172,1.114.1,2.321-.965,2,.347,4.677-.154,1.746-.368-1.2-1.526-2.674-.926-2.629-.039-.729-.005-.444-.308-3.007-.665-.084-.25.891-1.13-2.369-.9.654.876-1.782.154.608-.571-2.863-.7-1.558.206,3.091.214-2.335.063-2.674.1-1.1.094-.179.944,1.56.615,1.238.423-3.126.217-1.558.978-2.58-.271-1.04-2.632-1.562-3.79,1.184.177,1.947-.11,1.116-.37-2.744.1,1.672-.775-1.114-.543-.2-.242.656-1.672,0-.947-.379-1.283,4.017.433,4.009-.976,3.5-.112,2.543-2.46,6.682-1.182,1.088-1.523-4.049-2.426-5.121-2.311.785-.2,3.294-1.766-.225-1.028.632-.381-.452-1.124,1.114-.462,1.927-.6,3.175-1.244,5.123-.357-1.084-2.848-.721.279-2.672-1.8-.11-.7-1.9-.07-.223.206-2.463.441-4.665-.686-2.674-1.539,3.447-.115.333.621,1.337,1.025a1.932,1.932,0,0,1,2-.462c1.785-.78-1.481-1.195-1.112-2.105.59-.759,1.742.232,3.338.052,2.082-2.084-4.061-1.576-2.674-2.209-.068-.493,2.588.415,2.006-1.028-1.748-.407,2.66-1.589-.667-1.847.123-.832,3.84-5.235-1.556-4.932,1.176-.331-2.541-1.5-1.339-.871,1.23,1.881-5.279-2.512-2-1.591-.464-.271-4.958-1.794-1.112-1.388.869.19-.287,1.1.444.566,3.537.133-.375,2.228,3.342,1.385-1.664-1.036,4.619-4.265-1.337-4.056-.594,1.414.588,2.348-4.454,1.335-1.1,1.761-5.51-2.444,1.558-.462.253-2.535-5.827-.91-3.342-2.415,1.835.85-.57-.733-.444-1.077,3.386-.616-.737-.391,0-1.388,3.894-.049,2.708-1.709,4.454-.049,1.745-.973,2.841-2.961-.221-2.363-.1-1.529-2.989-.728-1.335-2.363,7.19-.284,4.324-2.783-2.451-1.693,1.758-1.909,1.521-.678,6.9-.206,1.415-.339-1.857-.592-2.226-.77a2.687,2.687,0,0,1,2.674,0c-.327-.329-.8-.657,1.112-.462-1.042-.5.213-.3,0-.72-6.668-.3,2.878-.441,1.781-.822-5.673.386-.715-.926,0-1.182-1.849-.689-4.252.029-4.007-1.182,3.726-.318-.363.929,2.7.42.588.736,1.662-1.886-.249-1.6-3.129-.337-1.8-.2.666-.41.2-2.123-1.592.086-2-1.591-2.429.488,1.138-.934-2.007-.926-.58-.417,1.807-.292.223-.668,6.132-.905-4.278-.563-2.672-1.335,2.861-.078-.4-1.09-2.226-1.385.6-.229,2.182-.582-.223-.668,3.053-.668.056-.493-.891-.6-.307-.483.4-1.083,2.228-.326,1.11-2.481.335-.725,5.566.1-4.7-2.045-7.2-3.521-7.792-5.311,1.724,1.051-.831-.8,1.78-.441-1.192.824,2.142.438,2,1.234-3,.086-.685,3.287,2.228,1.8,5.424.608-3.812-.994-2.451-1.182,1.393.751,5.247.365,1.558.206-.412-.008,3.027-.175.669-.31-.964-.582,3.99-1.544-1.114-1.231-1.779-.91,2.812-1.565,1.114-2.105-2.421-.936-.44-1.834-1.779-2.465-.4-.123-3.061,1.228-.672,1.129-1.55,2.334-1.265-1.967-3.34-.892-.68-.916,7.076.258,6.458-.9.04.039-3.989.683-2.451.052,4.32.284.432-1.336-.444-.31-1.154-.469,1.07-.67,2-.308-3.053-1.153.034-.044,0-1.182-.943.112-3.619.381-3.342-.1,5.562-.052.769-.889-2.226-.827,1.987-1.059,5.725-.008,4.238-2.042-6.245.326.558-.3-.229-.827-6.343-.224-4.769-1.536-.893-.976,1.257-.1-.526.13.446.357,2.266.005-2.086-1.093,0-.769,1-.2-3.186-.365-3.563-.256-.861-.84,4.436.454,2.672-.772-6.917.123,2.862-.431-.446-.563-2.064-.183-1.566-.668-2.22-2.251-2.29-5.48,7.911-26.324-10.027-28.508.634-5.59-5.707-2.063-4.681-4.213-4.312.063-.076,1.883-4.675.566-3.674-.021-.068,1.98,2.672.973,4.426.856-11.5,1.359-5.789.052-6.656-2.669-5.237,3.075-12.472-.154-3.28.47-2.826.451-5.791-.206,3.85.334,6.066-.407.667-.462-3.35,1.179-5.3-.112-6.68.72,1.672-1.257-2.961.36.666.1,4.99.146-4.609,1.815.67.1-4.412-.057-6.377-1.145-1.114-.926-2.168-.822-9.356.775-7.572,1.388-.791-.754-5.016-.337-1.337-.1a2.127,2.127,0,0,1-.668.151c-1.6.245-5.685-.31-3.342-.563-.767-.53,1.084-.1-.223.256,2.574-.3-.151-.814,3.342-.717-6.327-1.529-.1,1-11.359.357-3.232.117,2.619,1.041-1.56,1.335-1.777-.154,2.027-.428.223-.822,1.074-1.158-4.079-.483-2.451-.2-1.068.162,2.535,1.142.446.668-7.359-1.521,10.366-1.492-.889-2.467-.984-.339,1.632-.53-.669-.357-3.139.287.229.423-1.781.668-2.306,1.385.319-1.046-5.791-1.388-1,.5-1.235.06-1.112-.36-4.807.151,4.452-.642,2.67-1.758,2.941-.686-6.588-2.992-12.026-1.735-10.729-1.244-.536-2-12.026-.717-12.572-1.14-30.745-.17-35.191-.462.5.965-1.453-.316-2,.668-4.34.06,3.682,1.049-4.677.822-2.017-.008,1.393-.689-1.782-.258-1.15.217-1.323.756-2.451.154-7.244,1.025,1.847-.986-5.4.094,2.178-.764-12.687.79-5.51-.248.438-1-2.61-.668-3.784-.256,1.475-.668-2.891-.5-2.447-.086-.889-.425-1.562.154,0,0-1.044.767-3.671-.681-2.9-.683-1.8-1.975.275.79-6.682-.052-1.923-.068-.179.279-1.337.514-1.445-.133,1.7-1.354-4.009-1.08-.416.136-1.281.133-1.337.308,4.081-.313-2.973,1.1-2.9.412,1.69-.321,2.2.159,1.114-.462-6.482.558.074.832-6.014.616-.086-.464,1.574-.269,1.784-.668-3.792.18-4.025-.472-4.9.154,6.066.217-1.919.449,0-.052-3.77.057-5.621.222-6.682-.717-3.473,1.565-3.242-.2-5.57.308-.791.1-6.688-.48-7.57-.154-4.294-.31.691.188-1.337.308-3.406.263-8.429-.858-12.249-.308-2.152.308-5.512-1.2-4.231.154-4.254-.253-15.992-.882-22.051-.462-2.315.264-5.48.13-1.112.668-1.955.48-.088-.728-5.123.154.925-1.92-10.312-.785-15.812-1.13-.421.475,1.889.279,2.449.668-3.015.055-3.888-1.166-3.786-.1-.448.736-.994-1.242-1.781-.462-1.64-.013-5.775-.545-3.34.41-1.668.047-5.1-1.323-4.9-.563-2.539-.892-2.331.717-5.791.052-6.221.55-2.945-.91-10.019-.154a9.088,9.088,0,0,0-3.119-.052c1.684-.856-3.222-.01-2-.72-3.788,1.028-5.958-.06-4.677,1.08-3.9-1.268-10.914-.556-16.259-.308-3.946-.978,1.921-1.229-6.237-1.182,4.288.352-4.346.386,2.9.822-1.349.858-1.7.4-4.677.462.8-.556-5.412-.044-2,.052-2.333.136-9.691-.845-10.023-.1.143.655-4.173.083-.668.052-2.4-.584,6.383-1.1,1.56-1.283,2.806-1-4.249,1.262-5.344.409.49-.136,2.339-.5.221-.563a7.876,7.876,0,0,1-3.563.616c-1.128.832,5.486-.107,3.563.616-.2.652,2.565.237,2,.72-2.664-.681-5.336.055-6.016-.256-6.112-.759,2.17-.908-3.338-1.594-2.256.323-2.862.044-2.9-.514-4.567.647-5.416-.162-12.028.206,0,.571,1.67-.136,2.451.256-6.249.029-.887,2.118-2.449.668a8.014,8.014,0,0,0,3.34,0c6.753-1.346,3.983.326,10.023-.1-1.939.827-6.683.545-8.019.412,4.089-.24-3.828-.222.446.308-5.121-.188-3.667-.381-3.786.563-5.635-1.312-3.661.433-6.682.052-1.662-.824-6.205.334-11.36.154,5.111-1.377-3.806-1.45-1.114-.206-8.282,1.536-19.73-2.718-14.7-.256-3.316-.355-3.784.1-1.335.77-8.563.939-6.943-1.821-10.912-.514,8.78,1.007-19.166.655-20.043,1.182-2.543.375-14.057-.188-12.7-.514-2.8.545,2.612.451-1.558.874.5-.263-13.3-.136-13.644.008-2.933-.094-1.132-.563.44-.751-.771-.19,1.586-1.226.668-.942-1.758,0,1.933-.8-1.285-.37-1.118-.626-2.668-.54-2.66.36,4.1.511-5.522-.524-1.176-1.137-2.883-.989,4.535.882,1.732-.85,1.943-.814-7.271.459-8.712.151-.084-.326-1.389-1.385-4.326-.613-.644-.441-3.027-.07-.217.034-.62.13-1.758.263-.739.237-1.417.631-3.681-.279-5.936.329-2.644-.081,1.19-.323-.954-.543-2.326-.013-4.177,1.328-6.462,1.289-2.206.209-2.212-.613-4.45-.19-5.175.8-2.184-.592-6.711-.263-2.471.827-9.274.871-14.892-.258,1.835-1.022-2.547-.172-3.089.324-.223-.543.038-.443-2.927-.063a204.425,204.425,0,0,0-25.612-.365c-4.362-.206-8.766-.871-6.014.284-.861.117-3.567-.655-3.306-.222-.11.43-5.823.112-2.706,1.189-.53.7-1.867-.383-4.231.157-2.017-.005,1.391-.7-1.783-.261a3.178,3.178,0,0,1-2.832.1c-1.1.261-.259.563-2.959.261-.183-.193,3.4-.516,0-.469-.692.376-2.644.433-1.558.313-.8-.23-5.773-.378-7.172.248-.791.026-1.674-.034,1.158-.457.474-1.02-2.636-.678-3.786-.261,2.322-.608-2.339-.621-2.447-.089-.363-.678-3.633-.005,0,0-1.044.777-3.67-.694-2.9-.7-.64-2.081-2.708,1.5-7.351-.417-2.353-.3-5.468-.4-5.446.347-1.738-.37-2.226.9-3.461.175,1.678-.324,2.192.154,1.132-.459.542-.451-5.442-.981-3.455-.214-1.666-.06-1.558-.026.765.2.026-.394.2-.441,2,.063-5.291.524.5.775-5.346.563-.052-.483,1.69-.308,1.781-.678-3.936.188-4.015-.5-4.9.156,6.066.219-1.919.454,0-.052-2.234.136-3.738-.222-6.012.052-.2-.493.767-.443-.669-.785-1.694,1.15-7.323.052-10.181.039-.68.185-3.075-.144-2.959.117-4.294-.313.691.193-1.335.313-1.612-.13-.839-.005-5.115,0-1.365-.83-7.774.026-11.813-.78,1.805,1.513-4.079-.016-7.126.052,7.915.746-17.313-.469-14.477.1-2.318.269-5.48.133-1.114.681-1.439.1-3.081-.433-5.121.157-2.373.057,2.533-.383-.446-.368.3-1.531-20.8-.861-12.917-.1-3.017.057-3.89-1.182-3.786-.1-.45.749-1-1.263-1.784-.469-1.624-.016-5.785-.55-3.34.417-3.045-.6-5.42-.616-6.014-.939-2.473.7-8.987,1-10.691-.261-2.32.973-4.531.245-7.126.47,1.686-.869-3.222-.01-2-.73-8.18,1.505-10.316-.342-20.937.783-3.979-1,1.981-1.242-6.237-1.2,1.941.031,1.1.3.893.574a1.2,1.2,0,0,0-1.558-.157,17.665,17.665,0,0,0,3.563.417c-1.353.874-1.678.41-4.679.47.8-.566-5.41-.044-2,.052-2.337.136-9.708-.856-10.021-.1.143.665-4.175.083-.67.052-2.405-.595,6.387-1.114,1.56-1.3,2.736-1.015-4.2,1.283-5.342.417.49-.138,2.338-.511.219-.574a7.766,7.766,0,0,1-3.563.626c-1.128.845,5.488-.11,3.565.626-.122.663,2.5.24,2,.73-2.9-.754-5.382.1-6.016-.261-6.112-.772,2.168-.921-3.34-1.617-2.256.329-2.86.044-2.893-.524-4.687.657-5.325-.164-12.028.209,0,.582,1.668-.138,2.449.263-1.018.109-5.271.493-2.672.782-2.321.921,4.308-.321,8.242-.73,4.007.605-.424,1,5.344.522-1.923.837-6.692.555-8.017.417,4.087-.245-3.828-.224.444.313-5.119-.19-3.667-.386-3.784.574-5.635-1.333-3.663.441-6.683.052-1.469-.835-6.343.339-11.358.156,6.658-2.812-13.869,2.533-13.807-1.359-5.287.073-5.4,1.15-3.344,1.675-2.7-.141-7.22.762-7.126-.576-1.353.35-.984-1.174-3.786.052,5.434.209,1,.556-2.226.629-.032.618-11.376-.237-10.021.415-6.9-.224-18.887.869-20.493-.365-2.8.556,2.614.459-1.558.889.839-.759-16.908.809-15.145-.47,5.157-.237-.907-3.513-1.337-1.255,4.053.43-1.776-.063-2.447-.47,1.672-.754-2.832-1.114,1.112-1.463.058.412.155.931,2.451.629-.733-2.035-4.543-.613-8.909-.365-2.708-2.3-5.462-.042-11.582-.211-2.88-1.544-5.524,2.029-10.47.42-3.206,1.4-13.419-1.643-6.235,1.3-18.566,5.071-29.925.109-53.9,1.516-.55.076-12.361,2.016-14.475.887-2.3-1.017-11.5-.785-16.928-.678-12.9,0-17.078,1.8-13.586-2.194.078.154,1.881.389-.221.522-.446.642,3.643.193,1.335.1,4.868-.339-4.071-2.335-5.568-1.933-.7.569,5.691,1.38,1.558.994-4.549.623-1.218-.754-4.454-.365,3.527,1.1-3.063.715-.446,1.356.67-.634,4.525-.321,2.674.157-1.548-.253-3.82.5-2.451.524,3.115.809-4.771.728-.891.991,2.156-.141,1.67-.626,4.456-.417,1.192,1.182-10.715.415-10.468-.156-5.1-.49.8-.493,3.786-.837-2-1.26-1.271-.005-3.786-.574,1.03-.232,3.18-.616.221-.365-1.915-1.576-.335.584-2,0-2.495.24-4.707.35-4.009,1.043-1.935-.248-1.325.308,1.782.052-1.953,1.4,1.658.318,2,.629.781,1.62-15.483-.611-17.372-.626-2.979-.347-4.42.516-5.789-.681-.438.036-5.3.363-1.783.261.145,1.21-10-.582-11.358.313-.233.282-2.22.026-3.119.1,7.2-.357-3.382-1.688-8.24-1.461,8.981.2-.931,1.573-2,.887,1.644.042,2.2-.12,1.558-.417-2.423-.514-4.187,1.124-3.119,0-2.618-.923-5.364.811-4.675.1-2.429-.8-7.568.1-8.242-.261-.851-.749-4.091.357-.668.261.789.467,7.144-.157,4.456.209.835.279.5.524-.893.365,5.753,1.26-5.277.4-2.893.733-6.719,1.028-11.683-.942-12.474.678-2.935-.042,1.463-.229-.221-.574a71.64,71.64,0,0,1-20.047.574c-.923.47-3.262.269-5.119.991-1.544.4-5.59-.386-5.346.209-3.35-2-2.529-.01-7.574-1.3,4.884-.66,2.487-.676-.668-1.307-2.168.237.847,1.226-2,.785-.279.386,1.459.256.668.574-4.119-.086,1.536,1.664-3.119,1.722-6.251-.55-7.265,1-14.477-.313-1.923,1.442-13.935-.5-2.451.1-1.941-1.056-12.393-1.985-7.349-.782-.548.84.1.54,2.672,1.1-3.683,1.221-7.752-2.121-4.675.261.512.652-19.521.762-22.5.522-1.441.381-13.523-.063-9.133.522-.56.431-3.005-.049-3.784-.156-4.153.676-11.083.245-13.807.417.014-.245-7.275.749-8.909-.157-.809,1.706-15.978-1.1-11.135.313-16.609,1.312-2.909-1.98-16.035-1.046,3.7-.973-1.586-1.956-.668-2.869,3.408-2.527-1.881-2.191-5.344.835-3.17.209,5.273.874,1.335,1.933-3.736-.115-.9-.754-1.339-1.046-5.225-.383,1.106-1.784,1.337-2.3-7.387-.816-2.754,1.831-6.235,1.046-3.115.485-3.4.362-4.009,1.252-1.534-.477-.187.477-3.34.1,2.415-.84,1.3-.451-2.007-.522.759.19.112.167-.668.157,1.843-.6-4.023.235-5.789.417-14.565,2.862-34.585.073-50.111,1.516-14.9,1.137-122.661-1.244-90.425,4.335-20.487,3.125-2.011,16.668-.962,19.686.947-1.815,2.025,1.925-.012.036-3.364-1.917-.646,1.873-1.253-.3,4.5,1.933-7.144,4.68,3.119,2.559.678-.683.283-1.051,1.556-1.985,2.084.141-2.553,1.043,1.116.942.572.55-4.328,1.86-1.114,1.568.1.576,1.495-.955,2.23-.107-4.013,1.054-4.609,1.625,2,1.724-3.057,1.544-4.832,2.82-9.354,3.448,1.319-1.351-1.04.715-3.119-.107.871.4,1.014,2.41,2.447,1.046,2.662.913-1.658-.623,2.9-.47,1.53-.01-.811,2.256-.889,1.2-.59.451-1.674.626-1.337-.052-1.257.347-3.081,1.286.446.574-.1.806-6.841,1.458-1.337,1.568,1.586-1.291.725,1.153-1.114,1.3,3.459,1.469-.68.2,0,1.307,4.85,1.116-2.391,1.129-.891,1.881,2.343-.621,2.244-.206,3.119.574,1.839-.07-4.424.837-1.335,1.515-1.132.85-3.423-.23-2.9.574-2.419-.381-1.419.725-.668.209,2.521.076.837.73,3.786-.157,2.12.605,1.831,2.306-.221,2.348,4.047,1.323,6.432.177,3.782,2.249-8.882-2.084-4.661,2.384-.889,2.5,3.792.955.4.5,3.563-.1-.008-1.722,1.359-.454,1.335.211,1.594-.136,1.128-.506,1.783.1,8.126-.472-3.782-1.122.223-1.515.879.657,1.961-.77,2.228.365,3.051-.741-.153.274,2.226.417-.638-1.015,1.995-.514,1.783-.156-1.026.644-10.767,1.4-6.016,1.985,3.39.446-5.631-.287,0,.209.265.647-.674.3-1.114.678-1.65.7-5.779-1.437-.893-.365-3.625-2.47-9.738-.459-12.47-1.148-2.108.154,13.375,3.042,3.117,2.3-7.172,2.478-1.218,5.486-3.782,8.407-1.5,1.127,6.153,1.92,1.779,2.768-1.929.707,2.8,1.419,1.335,1.985-5.829.749,5.163.553,3.565,1.565-1.9-.72-3.1.339.444.209.452.7-2.838-.005-2.449.837,3.637-.631,11.366,1.148,6.233.835-.953-.378-1.166.467-1.112-.209-4.021-.352,2.188,1.294-3.119,1.411,2-1.628-1.791.511-4.229-.42-1.487.376.849.67,2.226.994-1.67,1.085,2.716,1.051,1.779,2.194,3.607-.271,8.618.1,4.456.626-.974-.642-4.767-.425-3.119.1,1.544-.522,2.75-.2.668.209-1.214,1.289-8.1-1.758-4.456.522,8.4.782.9-.8,8.69-.522,1.881-.819-2.029-2.332-4.013-1.2-4.964-2.032,4.1.1,3.788-.887-2.3.091-2.495-.443-1.337-.835a4.766,4.766,0,0,0,3.565.678c-5.342-.824,4.037-.037.668.313-1.538-.383-4.416.618.67.994-1.188.915-1.811-.516-2.449,1.356-1.754.143-2.939.376-.223.313-3.443.78,1.224.138,1.335.733-1.566.91-1.588-.008-3.563-.211,4.149,2.361-.514.79-.67,1.829-1.881.793,5.755.209,2.451.942-.676-.683-2.322.895-3.342-.261-1.859.329,4.824,1.685,0,1.1-1.2.642,4.84.321,4.456.156,2.244.683,2.208-.219,4.454-.1.7.569-3.892,1.015-3.563.47-2.531.4,3.746,2.235,5.344,1.411,4.338,1.4-11.679-.107-8.238-1.2-3.15-.347-1.317.216-3.788.417-1.411.06,1.066-.691-1.56-.522-6.434-1.745,2.581,1.915,5.346,1.672,2.7.618-1.086.36-.891.991-.606-.156-.084-1.4-2.009-.869-1.909.579-4.579-.689-3.561.138,4.213.183-2.172.164,1.56.574-6.889,1.383,1.947-.042.891.209-1,.438-2.764.373,0,.785,1.724-1.461,5.649.472,6.01-.837,3.421.749-3.76,1.21-.444,1.307-3.818.188-1.574.981,1.56.365-3.463-.23,7.283-1.847,7.57-1.724-11.546,2.259,4.952,1.3.446,2.4-2.6-.493-.434.636-3.119-.261-2.062.128,1.383,1.017-1.781.1,1.16-.219-4.6-2.585-.666.73-1.59-1.075-5.713.639-.67.368-.566.141-.134.441.223.73-1.879.086-.4-.464-1.783-.626-1.086.282,2.166.871-.668.835,3.579.762.291.112,0,.887-1.11.368-1.516-.942-5.125-1.356,2.744.36-.205-.811-.219-.157-1.977.425-7.134-1.216-5.57.313.016-.8,6.548.277,5.57.73-1.263.188-1.873-.2-.223-.261-1.929-.566-3.748.37-2.451.469,2.258.389,6.275,2.655,9.354,1.2.287-.109,2.547-.454,1.339-.05-.638.48,4.476.175,4.007-.1.889.065,2.441.574,1.56.052,3.366-.736,4.111.991,3.119.887-.106-.047-1.861-.681-.895-.574-2.732-.224,1.843.629-.442.313.135.055-.03,1.617-.893.887-4.476.759-1.056.509-2.67,1.046-4.268.1-3.475-1.205-6.014-.263-2.909.543.729.4,1.114.472.855-.436,2.483.063.223.261,2.692.837-2.6-.05.221.626-3.254-.37-3.362-.976-5.123-1.411,2.525,2.415-4.527-.013.67-.365,3.481-.073-5.556-.073-2.228-.417,1.425-.138,4.358.12,1.781-.417-2.419.618-1.068-1.022-2.9-1.252-.9-.177-2.29.315-1.114.156-2.236.1-4.954-.177-.67.678-.879.415,2.614-.344,2.007.626-3.565-.423-9.485-.751-3.563.156-9.33.459,2.533.407,3.117.42,2.124.623-1.058,1.182.221.783-1.465-.738-6.353.712-3.786.991-.634-.157-.08-.425.672-.313-.094,1.2-.444.532,3.119.887-4.191.754,2.316.352,2.449.522,1.524-.292.478.6-1.781.209-.038.923-7.162,1.035-1.337,1.307-1.963-1.338,2.828,1.056,2.9.156,1.132.373-.11-.365,1.781-.365.58.183,1.53.5.67.1,2.371-.3,3.408.728,3.784-.052,1.118.709,1.383,1.049,1.562.209,3.208.1,1.375.193,2.891-.469.727.566,2.007,1.01-2,.678.622.016-.361.707,1.335.574,1.108.41-6.428.034-2.672.681-.114,1.062-3.164.091-4.677.156,2.971.837-.648.3.893,1.148-2.112.219-.4-.548-2.23-.522.006.37-1.614.143-1.337-.157-.974-.43-3.043.618-3.119.939,2.345.362.225-1,2.007-.313,1.483,1.127,4.318-.042,6.458.261,4.43,1.847-8.2-.819-4.9,1.359,5.488-.686,5.247.149,2.451.052,2.549.5-4.36.143-3.786-.052-2.883.381-1-.368.444-.522-.227-.039-3.657-.117-2.22-.519.689.915,3.085-.389.054-.016.422-.376-4.165-.065-4.96.271,4.314-.031.028.569,1.781.524,1.124-.084.66-.227,2-.368,3.162.18-3,1.323-1.337.733-3.772-.464.4,1.153-1.337,1.617,4.322-.149,2.18-.1,4.677.42,1.965-.566,4.211-1.1,5.348-.1-4.922-.629-1.512-.485-4.011.626-5.1-.441-6.644.224-.221.261-2.11.952,6.646-.462,4.9-.73,1.289-.07,4.354,0,3.786-.209,2.6.13,1.291-1.19,3.119-1.15,1.425,1.813-13.006,2.152-8.909,3.029.279-.277,3.918-.616,2.672.156,1.124-.172,2.1-.389,2.007.1-4.757.793-27.846,1.2-11.584,3.3,1.118.245-2.694,1.742,2.451,1.069-21.6,2.389-1.056,16-9.045,19.4,11.121,1.242,2.68,1.21,8.6,2.494-.329.814-3.1-.274-1.779.574-4.366.211,2.337.336,1.263,1.255.49-1.093,1.875-.5-.012.044-2.379-1.4-2.2-.342-1.114.514-.257-1.92,1.566,1.239.528,1.32.51.271-1.056,1.2-1.556.365-1.082-.1.753,1.309-.672,1.359-2.244,1.291,3.619-1.1,2.9-.01.552.644,3.366-.595,5.123-.042a10.431,10.431,0,0,1-4.009.167c1.506,1-2.632.232-1.337,1.085,3.8-.516,2.322.2,2.449.678.444.157,2.547.2,2.007.816,2.308.193,2.013-1.735,2.951-.48-.257-.2-1.807.428-.185.141-1.512,1.38-3.547-.952-5,.7-2.146-1.085-2.112-.8-.436-1.8-2.423,1.278-2.736-1.382-4.681-.621.5.882-.147,1.14,1.467,1.523-5.3.3.859.735,1.21.2-2.28-.19.693-.485.57.472-1.67.021-3.077.125-1.461.415,3.583-.848-1.176,1.364,1.578,1.325-1.809.869-4.9,1.369-4.613,1.821-.7-.25.9,2,1.7.876.823.2-.153-.117.215-.222,2.5,1.312-.7-.71,1.62-.522,3.692-.334.072,2.421.387,1.4-2.375,1.278.359-.527-2-.19-4.753.845,4.968,1.187-2.451,2.142,3.111,1.9,3.477.172,1.642,2.418,2.264,1.036-5.01,1.63.365,2.332-4.38,1.935.789-.052,1.335,1.922,1.7.253-3.463.355-.9.488-2.007.837-1.373,1.265-.785,1.565-1.19.569-3.025-.412-2.547.464-2.419-.456-1.419.874-.668.25,1.891-.133,1.072.065,1.337.506,1.758-.511,3.4-1,3.679.06-2.7,4.056,3.81,1.62,2.335,4.771-5.348-1.4-3.276-.446-6.014.644.978.97,9.569,4.051,4.9,2.833-2.919-.556-4.727,1.628-7.126.376-.949.128,1.182.848,1.572,1.315,2.1-1.4,8.662,2.914,1.546,1.455-.07,1.109-2.435.848-3.788,1.7.141,2.927,1.375,5.58.006,8.433-1.5,1.359,6.151,2.314,1.777,3.336-.494,1.429,2.622,1.98-.227,3.083,8.893.287-1.431,1.617,5.588,1.672-1.789.532-3.25-.01-2.838-.282-5.336.482,3.4.725-.48,1.562,6.518-.31-3.716.245.574.647-.472.25-.966-.133-1.467-.083.6,1.278,6.09.06,6.478.822-.47-.321-2.973,1.049-2.367.19,1.257-.6-3.254-.321-2.214.107-1.271.112-4.163-.485-2.224.428,4.42.618-1.833,1.742,2.11,2.408-.43.871,1.226,1.4-2.05,1.247.309.535-.1,1.476.516,1.625-1.839.365,1.831.263,2.646-.253.227.279-2.977.9-4.231,1.08,1.233.522,5.677.858,5.406-.923,7.881-.569-9.667,3.3-3.222,4.051-.789.3,1.018.081.006.5,1.666.4.13-.467,2-.125-.8.668,2.593.725,1.469,1.023-.893.383-4.372-.759-1.716.462-1.9.994,2.543.7-.869,1.208-2.154.193-5.364.245-1.3.845-1.389.574-1.909.618.249.475-.416.36-2.82.616-1.255.895-.861,1.268-2.706.206-2.782,1.816,2.471.206,3.8.073.67.41-2.614-.308.925,1.325-2.264,1.364-.99,1.046,7.526,2.379.705,2.181-.357.509,2.176.279,3.786.357.44.843-2.32.07-2,1.182,1.913-.2,1.437.136,1.112.462a2.786,2.786,0,0,1,2.672,0c-.516-.029-3.1.321-2.228.772,4.462-.436,3.055.1.982.151-4.364.623,5.1,2.457,2.644,3.211-4.356-.48.04.154-.508.9-3.738-.994-1.3,3.939,1.3,2.491,1.654,1.067,1.849.07,0-.441-2.144.814-.211-.822-.221-.313-2.076.584,2.254.141,3.234.895-1.889-.462-2.441.738-.187,1.148-3.872-.905-4.025.686-.038.313-2.68.96,1.309,1.166-.723,1.408-1.435-1.028-8.314,1.393-4.039.686.5-1.07.112.626,1.435.188-1.847,1.484-2.138,2.932-3.212.042-5.952-.209.329,3.023-1.333,4.059,3.2.728.743-.73,2.276-1.231,1.323-.316,1.433.284,1.17-.4,2.69-.076-.727,1.552-1.538,2.574-.809-.443-1.353,1.427-1.239.086,1.2-.631-2.515.538-1.337.871-5.41-.383-1.664,4.21-1.556,4.93-3.328.261,1.08,1.44-.67,1.85-.582,1.44,2.076.535,2.007,1.028,1.387.631-4.755.125-2.674,2.207,1.6.182,2.75-.809,3.338-.05-.281,1.229-3.483,1.706.456,2.272-.863.475-3.2.835-1.122,1.372-4.085-.451-1.3-.188-2.674,1.028,1.955-.884,3.192-.245,5.125.36,1.566-.663.482.081,1.112.462-3.858-.636-.333.493-.984,1.072-.819-.433-5.556,1.184-4.364,2.267,4.7-1.51,4.757,2.538,10.446,1.967.074,1.589-2.772,1.262.249,3.083.2,1.284-1.19.407-.668-.378-4.472.477,2.407,1.567-3.38,1.555,2.276-.394,1.879-1.609.012-.446-.2-1.14-1.53.365-2.461-.409-2.963.7,2.475.809.01,1.808-5.386-.691-3.908,1.552-1.124,1.025,1.542-.608,1.439.125,3.6-.039-1.793-.305-1.588-.331-.927-.277,4.852.3-3.274.777-3.973.944-1.636,0,1.634.608-.448.6-.715-.717.167.253-2-.089-2.678,1.625,2.937-.021,2.228,1.591,1.961.1-.024.151-.221.412a30.162,30.162,0,0,1,5.751.694c1.341-1.007,3.766-1.495,3.031.308-1.016-.274.771.36.674.577-1.2.083-1.17-.258-1.439-.6-.239.9-4.838-.676-4.492.412.572.107,1.528.451.038.41-3.394-.037-5.2-2.921-6.237-.822-3.023.519,6.054.576,2.19.537-7.01,1.575,9.645,1,8.557.451,3.746.287-1.475,1.341-2.885,1.745,5.871.292,4.173,1.116,3.571,1.706-.664-.164,1.618,2.272-.556,1.385-1.508.733,2.481.733.968,1.406-.859.18-2.836.128-1.413.671,2.064-.183.357,1.1,1.176,1.948-1.905,0-4.193.094-2.29.506,1.136-.989,1.52.7.927.529-.534-.005-1.17-.276-.789-.029-2.768,1.375,2.312-.61,1.447,1.036-.036-.06-.072-.292-.211-.389.931,1.721-6.99-1.036-1.114-.822-2.87-1.114,4.655-1.753-1.355-3.159,2.238-.224-1.762-.97-.66-.2-2.092-.532-1.253-.837.141-.425.582.308.3-.561.982-.43.735.892,1.182.355,1.3.11-1,.3-.414-1.369-4.009-.629-4.3.613-1.8-.457-4.862-.662-2.282-.235-1.231.949,0,.822-1.648,1.685,1.116-.055,2.672.514,1.829.6-1.538.65,2.9,1.077,3.894.417-1.122.775-1.783-.049-4.474-.055-6.333.48-2.427.868-1.056.5-4.107.052-1.58,1.083.239-1,1.925.255,3.561-.564,4.123.77-4.005.214-3.34.976,6.544.845-.488.592-2,.822,1.377.636.534,1.307,2.23,1.847-.964.381-.482-.162-.672-.256-1.164.2-1.122,1.179,1.116,1.028-5.737.2,1.255.3,1.112,1.591,4.741.075.582.73,4.454,0,2.009-.986-1.869,1.4.59,1.411-4.492.029-3.7-2.254-7.046-.177,2.782.362-3.113.289,0,.77,1.638.034,4.747,2.04-.225,1.182,3.842,2.695-3.23,1.748,1.112,2.773-1.447.17-.01.717.672.049,1.766.159-.723.464-.223.822,2.234.963-2.377.227-1.781.514,5.516,3.756,6.837,2.718,2.447,6.213,3.577,1.028-3.4,2.35,2,2.569-5.886,1.075.5,1.369,2.674,1.951,1.16.154-.775.48-.891.154-8.905.743,1.237.908-2.672,1.849,6.986-.044,2.214,1.495,6.462,1.795,2.284-.149-.357.735,1.341.415,4.8,2.95-9.164,12.307,7.943,11.832,3.623-.511,9.111,2.029,8.108.759,5.546-2.319,8.7,1.651,8.766-.282,2.387-.331-.731,1.855,1.8.72,2.788.73,7.788-.976,7.455.475,1.682.561,1.909-1.182,3.475-.7-1.73.863,3.053.624,3.888.577,1.9.423-4.376.323-1.524.84,1.305.778-.962,2.329,6.151,1.855.982.43,3.547.767,3.342-.316,2.413-.274,1.383,2.123-1.339,1.448,5.669-1.4-2.547.371-5.344-.125-.853.011-1.247.039-1.114.253,2.463-.211-.735,1.247-2-.441,1.883-.172-2.706-.6-1.114,1.385-6.522.23,2.076.548-.893,1.32,2.465-.279,1.648.631,5.346-.754,1.746-.068-.205.243.444.441.841-.112,6.717-.6,3.342.313-9.754-.136-5.319.939.891.691-2.75-1.654,5.145.415,5.344-.566,1.53-.355,1.1.023,1.114.316,8.057.357-.1-1.336,3.786-1.636-.58-.519-2.325.658-2.672.25.664-.446,3.6-.756,2.228-.691,1.194-.686,2.644-.175.444.063,4.1.613-.723.17-.223,1.007,5.641-.143-1.323.268,1.6.584,1.5-1.3,7.108,1.023,5.829.219a9.413,9.413,0,0,1,3.846.253c4.613-.1-3.946-1.422,1.853-1.466-3.137.824,5.3-.467,1.146.467-2.8-.2-1.235,1.218.516.811.845.561.909-.848,2.361-.177,3.214.655.566-.031,2.461-.063,13.951-.464,17.994.558,26.7-.321,1.345-.042,4.81.678,7.365.2,5.651,1.508,1.092-.086,4.928-.1,2.365,1.411,3.593-.091,1.722-.183,2.84-.4,3.7.6,7.074.188,1.949-.094,6.333.313,6.986-.415.269.268-.1,1,1.048.451,5.323-.081,5.456.41,8.885.005.713.43,2.893-.433,5.472.026-1.758-1.448,6.733,1.312,6.9.563-1.562-1.01,3.689-.459,0-.052,1.558.295,5.36-.1,5.121-.462-1.313,0-2.738.005-2.728-.391,7.59.117.959.6,5.845,1.059,1.094-.759,4.125-.775,6.239-.052.851-.589-1.056-.7,2.862-.929,1.921-.6-1.443,1.106,1.369.568-.7-.49,2.214-.43,3.117-.41-3.818,1.093,4.517-.316,1.339.668,9.625-1.294.554,0,8.015-.412,1.044.85.014-1.046,2.985-.691.165,2.4,10.215-1.046,12.608.845,4.121-.172-.59-.545.317-.616,3.431-.123,6.05,1.038,8.449-.112-.935.6.721-.055,1.17.141.6.274,1.174.764,1.008.222,9.071-.728,14.545.154,22.685.057,27.191.506,54.11-1.268,64.588-.206-5.281-1.166-2.575-.827,3.758-1.283,6.311-.13,1.51-.454,8.714.464,4.41,1.99-2.1-2.755-3.758-1.056-2.668-.8-.773-.336,3.314-.485-2.553-1.218,4.86-.344,3.746.7,1.07-1.2,7.6-.84,10.508-.754-2.015-.378-2.447-1.059.709-.386-.837.8,3.065-.06,3.406-.141-2.176.668-1.9.856,1.453.835.835-.138-.024-.524-.646-.086-2.716-.107.179-.913,1.313-.837,4.4,1-4.189-.4.438.905-1.71-.276.245.206.63.4-2.75.276-4.87-.908-7.341-.188,2.744-.167,3.282.67,6.711.443-1.646.295-1.841.525.678.749-.327-.477,2.389-1.359,1.335-.206,6.584.13,7.6-.506,9.645-.592,18.319,3.214,63.326,2.173,85.232.8-2.339.712,1.8,1.218,2.226.36,2.513.25-1.905-.543-.562-.514a45.915,45.915,0,0,0,9.433-.031c1.63-.156,1.253.256,3,.065-.749.05-3.728.237-2.726.477,1.168.318-.789.146-.233.258.654.1.793.068.859-.01.512.581,3.694-.039,1.542-.376,5.046.068-.707.506.961.6a1.918,1.918,0,0,0,2.606-.66c-.626.417,1.582-.25.618.313-.143.6,4.328-.561,4.984.1.791-.172,2.208,2.319,5.159-.073.735.673,4.834-.37,1.116-.248,0-.151.887-.086.941-.175,4.346-.144,4.1,1.677,8.154.7.753.042,8.816-.762,5.157.277-2.694-.574-10.1.976-4.009.5a44.445,44.445,0,0,0,4.9.185c-2.748-1.628,5.145.407,5.346-.556,7.391,1.023,2.515-.649,6.271-.3a28.318,28.318,0,0,1,6.016.527c1.022-.329,3.625-.214,3.3.143,2,.11,1.132-.5,2.306-.629-.674.8,2.393.514,2.842.162-.257.131,1.122.222.247-.039-.034.039,4.356.623,2.624.321-.98-.183.574-.292,1.373-.222,3.884.076,11.426.269,9.031-.274,2.272,1.022,16.35-.237,13.188.83-3.848.556,3.822.715,1.321-.011,3.439-.532,3.7-.308,1.182.188,2.955.626,1.4-.926,5.468-.313,5.611-.151-1.521-.326,2.16-.475,1.716-.016-.046.415,2.67.292,3.533.112-9.451.6-.054.861-3.057-.712,3.067-.237,3.1-.368,1.72-.123-.41.381,1.1.253.945-.042,4.647-.282,2.921-.384-.315-.874,6.458-1.033,7.578-.6.157.454-3.364-.347-3.726.042-3.912-.1.4.631-3.176.793,4.256.034,6.69.456,11.7-.164-1.114-1.142-.6-.589-4.378-.822,5.532-.368,2.114-.222,6.038.308.285,1.182,6.622.981,4.2.532.562-.537,2.449.3,2.931-.112-2.037-.344,2.22-.122,1.626-.2,3.236-.506-.875.553-1.951.736-1.15.031,1.971.258,1.56-.19,4.9.206,4.338-.005,5.791-.376-.988-.107-1.993-1.184-4.009-.631.711-.9,3.465.35,4.111.089,2.369-1.422,3.483,1.129,6.014.313-.927-.589.757-.107,0-.052,1.066.365,5.1-.433,4.575.407,1.628-.154,8.469-.968,2.893.125,8.575.652,53.4,1.552,80.625.5-2.027-1.208,5.932-1.276,11.892-1.43,2.569,1.239,11.169-.623,9.711.172.717.65,2.142-.289,3.539-.342-2.182,1.061.149.089.693.97,1.931-.613,1.138-1.343,5.791-1.07.982,1.174,3.085-.368,2.77-.122,2.511-.177,1.495,1.3,6.3-.326-.612.762-5.175,2.945-.827,1.14,5.215-.41,2.336-.446,2.722-.79,4.946.459,2.25-.814,5.073.1,1.887-.208,3.814.425,3.846-.373,2.236.081,3.147.665,7.066.183,2.26.013-3.736.916,1.337.441,1.235.355-3.027.091.668.5-5.484.955.9,1.44,3.786.253-3.876.328-3.063-1.91-1.459-1.49-1.371.086.913.475,2.349.8-4.426.457,1.512.631,1.684-.386,3.443-.266,1.425.013,4.107.323,2.842-.676-1.6-.078.223-.629,1.518.4,5.42.211,2,.691-.468.274,2.1.107,2.672.5-1.955.563,1.471.316.891.882-.767.308,8.485-.942,3.563-.754,8.886-1.677-5.434-2.376,1.214-2.269,1.391-.433-.508.788,1.783.733.522-.7,2.682.01.917-.712a1.973,1.973,0,0,1,.677.018c6.8.284,2.559,1.2-.582.592-1.188,1.156,5.5,1.774,9.764.684,1.3.083.945-.026.7-.243.319.454,4.221.057,0,.694-.953.561,2.816-.415,2.672,0,1.086.493,3.013.125,4.677.313-2.16.209-4.183.159-3.563,1.135,1.9-1.009,4.38-.115,7.8-1.2-3.734.042-3.27-1.49-5.344-1.132-2.636-.008-.518,0,.221.441-1.542-.034-1.654.073-2.226-.378-.259-.284-2.076-1.2-1.491-.219-5-.754,5.576-.678,1.146-.516.652.728,4.135-.608,6.082.18-2.323.7,3.123-.321,3.5.446-.181.352.97-.12.444-.365,2.1-.311-.365.913.777.529,2.218.394,5.143,2.762,7.805,1.33,1.915-.569-3.25-.42-2.911-.926,6.606.141,2.929.678,9.372.232-.253.365,3.16-.613,2.674.253.347.386-2.726,2.175.666,1.132,1.64.122,7.15-.548,4.679-.944,8.549-1.307-5.065,1.226,7.8,1.007-.315,1.017.6-.1,1.335-.313.022.232,1.554.477.893.125-1-1.568,2.078,2.071,4.9.063,8.64-.315-1.744.407,3.788.694-.209-.151,2.7-2.014,2.893-.944,8.5-1.114-1.235,1.07,8.465,1.132-.034-.48-1.4-.579.891-.5,1.945-.731-2.313-1.359,1.13-1.795,3.047-.005-1.511.989,2.656,1.291-1.152.308-1.518,1.6-.444.628,7.459.5-1.61-1.08,8.015.5-3.178-1.205,5.157.524,1.339-.819-1.21-2.108-1.022-.61-3.565-.816-.47-1.067,5.313-1.513,2.447-.923-.163.4.8.138.225.01,2.268.7,2.274-.329,3.342.976-4.591.423,1.771.592.667,1.26,1.75.55,1.921-.587-.446-.819.191-.53,2.521-.292.891-.757,4.765.355,4.717-1.27,5.793.063a17.047,17.047,0,0,1,4.44-.936c-3.017-.266.97-.167.012-.7-2.485-.013,4.272.217,5.689.1-.881,1.317-2.09.37-2.854.639-1.71-.193-2.838.083-.287.112-3.057,2.285-6.849.858-9.451,1.158-3.214-.532-3.971.715-.223.629,2.533.386-1.469.61.668.944,2.114-.887,5.145-.866,6.237.065,5.171-.167-1.969-2.4,6.014-1.763-.484.7-.191,1.048-2.9.944-.239.441,3.563.929,5.123.566-3.686-.5,1.564-1.174,0,.063,1.9.994,2.18-.939,5.346-1.195-3.388,0,3.192-1.1,1.11-1.888a26.146,26.146,0,0,0,4.906.044c1.106-.125-2.836.691.59.141,4.157.561-.707-.772,3.577.021-15.234,1.356,2.624,2.974-.829.423,4.511-.647,2.985-.918,7.672-.258,5.627.078,9.86-.237,11.99.133,8.921.981,5.7-.743,7.931.05,2.007.428-.664.548-2.873.767,1.777.884,6.793-1.341,8.668-.613,6.064.31,9.031.217,19.236-.263-2.624,1.748,5.681-.164,8.678.183-4.324.72,8.85,1.033,9.3.423.373.472,1.1.5,5.293.091.46.19,2.288-.005,3.455.17,6.014-.157-2.618-.344,3.119-.5-.845.574,2.353.214,3.342.31-3.41.378-2.351.644,1.112.123,1.433,1.659,4.826-.371,7.126-1.3-3.716.123-2.575-.071-1.941-.211,2.911.208,4.24-.211,6.9-.037-13.55,1.284,8.547.6,5.06-.185,1.55-.188,13.626-.068,8.688-.558,1.325-.759-5.1.224-1.522-.516,1.967-.037,6.245.281,7.8.034,2.987.183-4.089.089-1.626.386.273.167.149.17-.363.746-6.468-.587-3.844.989-13.419.835-2.977.55,4.017.611,6.014.436-2.848-.613,1.514-.908.889.06-3.961.373-4.8.926-3.093.856-.992.48,14.316-1.9,4.653.2.189-.206,9.511.4,5.123-.743,1.184-1-2.2-.308-4.009-.866-.026-.91,5.464.986,8.019.06-1.732-.97,2.07.271,2.226-.37-12.293.047,6.006-2.029,4.035-1.419-.654.031.108.065.229.081-7.389.736.458.436-2.606.8-4.481.37-2.67.433,1.3.19.976-.047,1.14-.039-1.172.167.235.052,2.276.271.668.37-2.457,1.883,3.818.06,4.235,1.3,8.3-.955,2.106.026,3.782.185,1.786.057.53.433-.889.37,3.294.514,5.227-.373,3.117-.8,18.9,2.032,52.028,1.421,77.506.866-.516-.245-.849-1.286.446-.929-1.634,1.359,9.31-1.9,8.463-.618,3.621-.2,2.6.858,8.463.433-1.056-1.39,1.662-.326,1.335.248,6.558-1.179-5.89-.7-.221-2.042-1.369.206-2.646.637-4.009.185.022-.37,3.85-.6.789-.629-1.941.415-4.157,1.03-2.571,1.557-8.927-.675,5.412-1.672,6.961-2.645.116,1.064,3.738.209,5.613.063.53.655,1.917-1.237,2.571-.884,1.433,1.062,2.561.256,2.489-.081,4.119-.394-1.534.989,0,.874,2.461.219,4.6-1.578,6.237-.156-.4-1.184.247.694,1.757-.321,2.794.556-.07-.837-1.349-.441.2-.452,3.382-.746,1.558-.37-.664.258,1.917-.368,2.626.034-5.167.485,2.1.42,4.045.6-2.71.762-3.023-.788-4.667.79,1.69.61-8.148.835-.67.991,2.7-.874,4.936-1.158,5.8-1.729-4.675,1.815,23.953.331,10.685,2.285-4.145.363-2.375,1.706,2.228.929,2.26.01-3.738.9,1.337.433,1.614.094-1.407.235-1.337.37,3.334-.263-3.78,2.407,5.793.373-8.029-.613,2.218-2.908,11.625-2.692-1.59.287-1.789-.522-4.946.712,1.413.519,3.122-1.187,3.34.308-6.632.177-6.976-1.257-8.017.185-4.342.242-3.641.292-1.114.806,1.3.2-2.268-.026-1.782.308,4.685.148,2.9-1.677,7.573-.37,3.138-.595-1.7-.073.221-.618,2.329.879,7.435-.615,4.456-.558a58.616,58.616,0,0,1,7.281-.605c-1.347.214-2.2.918,1.4.235,6.317-.923,4.6,1.849,0,.618-1.07,1.14,6.06,1.915,10.468.433.317.446,4.219.055,0,.681-.952.553,2.816-.407,2.674,0,1.084.488,3.011.125,4.677.311-3.87-.063-4.99,1.774-1.56.5a14.567,14.567,0,0,0,5.791-.558c-4.605-.185-3.77-1.7-5.344-1.114-2.634-.008-.516,0,.223.433-3.659-.023-5.113-1.734-8.2-.712,2.879-1.568,6.512.1,11.982-.587,1.7.089-4.677,1.27,3.563.31,4.549.54,1.6,2.008,5.568,1.917.851,1.607,1.516.156,3.119.063,1.134.052-.753-.876-1.558-.5-2.076-.063-1.518-1.132-.223-.618,5.177-.438,9.734-1.7,16.013-1.633,5.289-.222,1.694.034,3.139,1.2,2.6-.777.325-1.255,3.306-.384-2.485-.3-2.874,1.915-1.744.691,1.373-.128,3.922.086,1.335.188-6.664,1.685-5.823,1.461,2,1.795-.315,1,.6-.1,1.335-.31.022.229,1.552.469.891.122-1-1.542,2.078,2.04,4.9.063,8.642-.31-1.744.4,3.788.681.54-1.8,4.685-.483,6.684-1.484.566.561-1.319,1.8,4.677,1.669,2.85-1.625-1.644-1.9,2.894-2.35.516.261.733,3.107,1.337,1.98,7.461.493-1.608-1.061,8.017.5-3.18-1.184,5.157.514,1.337-.806-1.243-2.092-1.008-.592-3.563-.8,2.541-2.655,2.915-1.411,6.012.063-5.215.37,6.769,2.29.223.433,1-1.278,5.093-.344,4.679-.866.012-.636,2.242-.35,2,.185,6.2-1.6-.6-.8,1.335-1.362-6.544,1.059.52-.7-3.34-.373-.044.318-2.6.2-2.9-.123-1.473.107.247.579-1.781.308-1.963-1.314,2.059-.686,3.143-.822,3.6-.279,6.791.211,6.877.081,5.91,1.059,5.615-.5,5.795.37,2.162-.2.661,1.362-1.337,1.239,1.221-1.177-5.081,2.381-9.133,1.051,5.657-.454-10.581-.011-1.335.618.371,1.917,4.059-.887,6.9.991,2.321-.12,3.657-.639.444-.929,3.99-.36-.247-1.385,5.568-.8-1,.313.867.673-.891.741-3.926.334-.343,1.077,3.119.743-3.689-.49,1.564-1.155,0,.063,1.993.668,6.572-1.763,6.458-3.034,15.278-3.148,5.681,1.557,15.439-1.114,1.2-.829.183,1.192,1.859.06,3,.355,19.973-.809,13.662.746,4.1-.545,6.889-.5,12.508-.9,4.5.446-1.911.806,2.632.965.4-1.111,7.14-.986,6.682.063.841-.748,4.039-.892,4.9-.185-.173-.96,3.74-.688,5.586-.509-1.214.344-1.887.707.652.261.022-.292.616-.629,2.266-.125.139-.172,6.963-.2,5.121.1-1.606.018,2.909.162,1.255-.024,3.039-.824.022.663,4.089.076,2.943-.775-6.781-1.278-.444-1.255-1.513.175,1.981.84,1.722.412-.3-.318-4.011-.772-.831-1.038,1.339,1.5,2.383.691.853,1.724,6.163.25,8.355-.616,12.287-.629.5-.694-4.322-.326-.223-.835-2.632-.631,1.124-.089,2.672.522-.345.339-2.092-.639-2.67-.209,3.308.407-4.011,2,4.9,1.1.2.814,8.094-.9,5.344.469,6.277.214,10.348-.694.891-.574-3.376-.756,2.5-.355,3.342-.261.652-.164-1.3-.423.446-.368,3.493,1.669,9.262-.665,4.456-.469,1.638-1.709-3.288-1.268-1.118-1.148-.678,1.348-4.962-.2-9.352-.052-1.786-.728-1.088.337.891.313-2.293.386-3.77-.806-1.965-1.2.353-.25.883,1.059,3.525.524-2.174-.581,8.7.285,5.119-.994,2.613-.049,1.642-.1,1.076-.579,3.868.688,2.048-.564,3.6-.621-.574-.553.518.334,1.967.558,3.949.217,2.772-.435.159-.161-1.544-1.469,7.628,1.041,6.331.117,4.081-.449,2.309-.308,2.716-1.07,1.427-.1,5.677.376,2.8-.618a17.19,17.19,0,0,1,2.22-.029c.8.065,5.579,1.716,5.418.394,28.984.652,7.686-9.437,16.143-13.449,2.031-.683-2.4.112-1.331-.608,1.251.013,3.551-.42.99-.07-2.457-.84,3.2-.845,2.892-2.319,1.987.091,2.762-.151.125-.17.751-.657,9.83-2.121,1.4-2.874-2.3.441,1.385-.3.891-1.114,4.575.644,4.21-.9.893-1.424,2.009-.308,3.9-.324.889-1.362,2.766-2.848-4.119-3.92.14-7.246,1.285.144,6.476-2.376,1.21-2.006.817-.757-.755-1.276.209-1.581.683.8,2.12.143.67-.06.245-.626,2.865-.031,1.558-.869-4.059.026-.323-1.432-.444-2.475-4.97,1.036-1.861-1.38-.223-1.424,3.113-.574-2.784-.49,0-.926-3.336-2.734-2.776.35-6.422.1-3.507-.227.492-.323-.4-1.359-.357-1.234-.1,0,1.285-.018,2.186.511-.731-.13,3.531-.214-.889-1.4,7.951-1.823,1.116-1.917,2.234.183,2.278-1,1.112-1.239-.335,1-1.363-.109.893-.5,1.012-.477-1.686-.949.666-1.424-1.016-.451-7.8.355-5.773-.491.67.431,1.957-.407,3.77-.5.05-.983-7.3-.363-3.342-1.177,2.188,1,3.409-.548,3.563.681a6.862,6.862,0,0,0,1.337-1.114c-2.089.475-4.382-.469-1.781-.188,2.467-1.37-.112-.759-3.565-1.051-4.269,1.6-2.975-.274.488-.25,1.419.123-1-1.007.626-.986,1.11-.8,1.457.631,2-.125.666,1.714,3.27-1.862.672-1.484-3.264.018-.578.6-1.562.929-4.639.339.028-1.372-5.976-1.1.443-1.244,2.176-.845-1.114-.889-4.014.2-.335-.044-2.338-1.429.269-1.179,5.175.746,4.565-.449,1.126.109,1.156-.31.891-.472-1.2.574-1.6.047-2.332-.06-1.12-.43-2.887-.425-1.232-.723-.12-.916-3.252-1.432,1.383-.545-.883.37,4.992-.023,2.144.472.163,1.922,4.524.571,1.668-.339,5.592.318,5.5-.287,1.893-1.27,1.361.086,5.44.068,3.119-.5-.929-2.275-2.485.3-5.249.879-1.327-2.4-5.847.916-6.785-1.9,2.363.454,1.877-1.181,2.274-.248,2.786-.279-1.658.816,2.031.623,4.788-.42,3.967-.556,4.834-1.028-.709-1.943,4.906.039,2.228-1.92-4.665.493.227-1.059-7.766-1.176.012.094,3.29,1.325.008.263-3.146-.021-1.122-.125-1.783-.576-.8,1.012-1.769-.407,3.342-.209.447-.2.43-.016-1.15.276.289.292,1.086-.209,1.114.123,2.539-1.168,2.009.472,4.677-.185,3.1-1.649-5.773-.808-3.119-1.484-3.007-.8-.084-.3.891-1.361-2.369-1.083.654,1.054-1.782.185.054-.428.783-.642-1.114-.373-1.249-.929.161.751-1.453.4-.711.224-4.133.1-1.758.373-2.353,1.195-2-1.737-.436-1.137-2.411,1.649,2.955-.446,5.813-.018,3.228-.044-3.659-1.586-3.417-.289-1.752-1.028-2.585.269-3.422-.378-1.291-.509,6.353-.712,2.929-.67-2.487-.253-.51-.047-2.256-.618,3-1.033,4.2.378,6.672.548,2.668-1.148-1.443-.527,0-1.421,4.677,1.1,5.079-1.5,3.121-.188-5.012-.853,1.455-2.2-6.273-2,3.655-.047,2.148-2.893,6.5-1.338,1.706-.733-3.539-3.211-3.68-2.807.751.407-1.5.06-1.445.021.861-.263,3.182-2.095-.13-1.255.277-.347-.2-1.145.566-.756,1.343.469,3.372-1.716,5.576-.217-1.518-1.286,1.682-1.894-2.67-1.236.508-.289,1.993-.762,0-.929-.295-1.369-1.957,1.878-2.507-.141-1.453.281-2.391-1.685.964-1.44,1.01.172-.823.816-.018,1.208.393-.269.935-1.046,2-.556,1.381-1.735-3.153-1.7,2.23-2.475,2.078-2.512-4.065-1.9-2.678-2.663-.068-.595,2.588.5,2.006-1.237-1.748-.493,2.66-1.917-.667-2.23.179-1.1,3.812-6.312-1.556-5.942,1.176-.4-2.541-1.81-1.339-1.051.554,1.729-2.246-1.049-2.634-1.716,3.6-1.007-.634,1.4,3.3.48.14-1.307,2.19-7.27-1.528-3.827-2.664-.832.03.939-.7,1.474-.452-.441-4.681-1.244-1.076-.738.289-.73-5.023-.715-.934-.871-.353-1.221,7.166-1.085,2.495-1.74-.966-1.325,5.4-.884.953-2.074-2.361-1.148,2.529-.2,2.14-2.053-1.427-1.242.68-2.655-.805-4.033,1.068-.43,3.121-2.147.869-1.088-.056-.824-1.3-2.353-.08-2.259-.389-1.119-7.965-1.742-.532-2.05.494.686,2.676-.652.06-.01.61-1.258-1.919-.511-.963-1.221,2.939-.347,3.547-.545.53-.571-2.491-.9,6.705-1.414-1.108-2.024-.474-.107-.747-.329-.658-.869,3.726-.386-.363,1.119,2.7.506.289.8,1.849-2.314-.249-1.93-4.039-.673,2.047.008.922-1.424-1.488-.352-2.405-.206-2-.887-.9.417-2.019-1.234-.225-1.1,4.719.193-.034-.908-1.891-.443,3.019-1.171,2.624-2.175,2.6-3.344.773.636,1.879-.6-.03-.016-1.787-.378-.333.767-.909.96-.867,0-.285.618-.012.031,1.6,1.346-3.984,1.208-4.25.279,2.246.287.373-.355.935-.634,1.632.4,3.158.073.417-.433-.313-.715-1.058-.9.47-1.15-1.279-1.166-1.146-.141,0-1.307-2.451-1.328-2.1-2.053-.115-.605,1.576.749.135.548,2.75.663-1.042-.978-2.427-1.38-1.4-2.189,1.315-1.453-2.73,1.166-3.686-.741,2.058.582,2.166.117,3.3-.35,4.111.837-.662-.508-.61-.955,2.156.529.8-.537.413-.592-.51-.373,3.119-2.04-1.14-1.487-1.7-1.176,2.688-1.711,1.114-2.538-1.146-1.064-2.323-1.6-1.076-2.486.181-.882-2.329-.292-2.13.394-4.448-1.847,4.119-.339,3.888-1.534.719-.537-4.079.908-2.465-.086,4.32.344.432-1.609-.444-.373-1.154-.569,1.07-.809,2-.37-.767-.211-.024-.592-.667-.308-1.841-.858.7.13.667-1.116-6.157.253-.835.052-.648-.746C1485.987,560.935,1486.108,555.251,1481.617,549.867Zm-.331-13.8c.741.083.379.342.223.514C1480.4,536.5,1480.869,536.306,1481.286,536.071Zm-1.558.258c.889,0,.008.347,0,.206C1479.09,536.494,1479.4,536.408,1479.728,536.329Zm-2.228,2.465c1.754.383.153-.154,2.674-.052C1478.847,539.5,1477.227,539.989,1477.5,538.794Zm-3.786-4.674c-.417-.073-.831-.044-.668-.2C1473.764,533.875,1473.777,533.99,1473.714,534.12Zm-1.558-6.829c1.506-.044.452.167-.223.308C1471.45,527.591,1472.125,527.393,1472.155,527.291Zm5.123-37.846v.2C1476.533,489.584,1476.3,489.226,1477.279,489.445Zm-6.46-6.678c-.09.13.307.329-.444.337C1470.525,483.047,1469.969,482.562,1470.818,482.768Zm4.677-14.685c.592.133,2.088.446.893.563C1475.107,468.719,1475.407,468.351,1475.5,468.082Zm-1.558-1.49c.542.026.468.141.223.206C1473.233,466.843,1473.65,466.723,1473.937,466.593Zm-2.449-18.077c2.762-.582,3.312.36.444.36C1469.983,448.876,1469.864,447.747,1471.488,448.516Zm-.223,19.976c.584.125,1.024.274.891.462C1471.2,468.966,1471.611,468.656,1471.265,468.492Zm-.446-1.643a9.053,9.053,0,0,1,1.56-.308C1473.158,466.718,1471.045,467,1470.818,466.848Zm.223-1.847c.484-.31,1.3-.248.446.2C1469.511,465.317,1470.458,464.373,1471.041,465Zm1.781-8.884c3.671.209.054.623-.891.462C1467.965,456.662,1472.333,456.373,1472.823,456.117Zm-2.226-1.9c.281.253,2.862,1.135,1.335.926C1469.465,456.848,1470.376,454.474,1470.6,454.216Zm-71.939-44.678a1.469,1.469,0,0,0,.67.157C1399,409.861,1397.217,409.462,1398.658,409.538ZM281.891,401.533a.6.6,0,0,1-.446-.365C281.834,401.267,281.881,401.332,281.891,401.533ZM23.54,429.263c-.09-.2.153-.266.668-.052A3.678,3.678,0,0,1,23.54,429.263ZM24.652,452.5c-.811.107-.891-.274-.444-.156C24.73,452.314,24.678,452.411,24.652,452.5Zm1.56-.261c.6.1.957.248.891.417C26.418,452.585,26.165,452.4,26.213,452.241Zm4.9-24.7c.169.151,1.216.728,0,.524C30.975,427.967,30.407,427.636,31.113,427.539Zm-4.9-.417c.122-.016-2.094-1.81-.446-1.513,1.506-.031,1.4.243.446.261C26.6,426.629,28.229,426.863,26.213,427.122Zm.668.47c-.626-.057-.173-.42.668-.365C27.446,427.461,27.261,427.45,26.88,427.591Zm1.114-1.043c-.193-.605,1.941-.164,1.558.052C29.293,427.148,28.3,426.9,27.994,426.548Zm1.558,1.2c-.807.1-1.455-.8.223-.678C29.841,427.33,30.373,427.6,29.552,427.748Zm.446.577c.516.039.5.055.891.1C30.25,428.64,29.813,428.567,30,428.324Zm-.223,20.315c-.42.011-.293-.141-.446-.209A.753.753,0,0,1,29.776,448.639Zm-8.24-3.031c-.687-1.182,3.439-.316,2.226.42C26.555,447.434,23.626,446.252,21.536,445.608Zm5.121,2.611c-2.971,1.189-1.461-1.432,1.779-.417.6.248,1.495.582-.219.629C27.885,448.078,27.761,447.76,26.657,448.219Zm1.114,1.411c.968.4,1.941,1.312,1.337,1.252C26.675,450.624,28.381,450.066,27.771,449.63Zm1.781,3.446c-.434-.258-.576-.37.446-.156C30.023,453.011,30.076,453.11,29.552,453.076ZM29.329,449c.223-.456,2.519.143,2.451.365C31.172,449.145,30.088,449.267,29.329,449Zm2.9-18.017c-3.758.086-.211-1.578,1.112-.574-3.85,1.119,2.614.068.446,1.1C31.748,431.36,29.564,431.6,32.227,430.987Zm1.781,20.732.221-.157C34.447,451.623,34.6,451.753,34.008,451.719Zm-1.339-21.882c1.979-.1,2,.261,2.007.577C33.289,430.742,34.138,430.09,32.669,429.837Zm-5.789,42.3c.153.232-.369.237-.668,0C26.6,472.052,27.606,471.99,26.88,472.138Zm-3.34,4.124c-.006.1.638.415-.223.368C22.8,476.5,23.473,476.4,23.54,476.262Zm-1.114-1.3c.933.143,1.772.355,1.558.626C23.208,475.464,22.371,475.148,22.426,474.958Zm2-.522c.723-.047,1.014.125,1.112.261C24.636,474.655,24.634,474.632,24.431,474.436Zm4.454.626a6.73,6.73,0,0,1-2.228-.417C27.92,474.551,29.283,474.726,28.885,475.062Zm-2,5.744c.436.081,1.206.044,1.114.209C27.185,481,26.988,481,26.88,480.806Zm5.791,5.118c-.088-.2.552-.016.668.1Zm4.009-.1c-.325-.172-.516-.334-.446-.47C36.491,485.428,37.721,485.853,36.68,485.82Zm.223.994c-.456.464.893-.047.891.313C36.629,487.218,35.742,486.98,36.9,486.813Zm-6.682,5.379c-2.118.143.532-.449-1.114-.576-1.369.443-3.332.209-1.337-.47C20.494,490.7,31.912,490.786,30.222,492.192Zm1.112-.733c-.606-.11.763-.258,0-.365C33.263,490.768,32.87,491.313,31.334,491.459Zm-7.793,3.918c-.548-.882,3.551.01,3.34.47C24.427,495.922,25.816,495.163,23.54,495.377Zm2,2.4c.416.005,1.056-.044.891.1A2.444,2.444,0,0,1,25.543,497.779Zm5.57,5.9c-1.058-.062-.054-.576-.893-.209C25.292,502.876,33.133,502.965,31.113,503.679Zm-9.7,42.935a5.89,5.89,0,0,1,.668-.253A.87.87,0,0,1,21.408,546.615Zm.02,43.4c.092-.091.124-.17.108-.232C21.745,589.81,22.008,590.05,21.428,590.019Zm-3.234,78.992c-.108-.036.141-.01.261-.026A.485.485,0,0,1,18.194,669.011Zm-3.971,4.8c-.155-.172-.518-.433.223-.514C14.862,673.534,15.336,673.727,14.222,673.813ZM16.9,695.946c-.395-.146-.042-.24.668-.206C17.793,695.914,18,695.922,16.9,695.946ZM70.979,718.1c-.357.41-1.666.112-.891-.188C70.335,717.937,71.583,718.109,70.979,718.1Zm504.7,1.38a3.88,3.88,0,0,0,.644.005A.451.451,0,0,1,575.681,719.484Zm21.312-.1a.208.208,0,0,0-.066.149C596.728,719.487,596.943,719.435,596.993,719.385Zm270.867,1.239c.542.081.157-.031.446.125C868.651,720.888,867.728,720.9,867.86,720.624Zm40.759-2.238.076-.044C908.768,718.35,908.643,718.368,908.619,718.386Zm224.784.6c-.048.07.157.211-.223.188C1133.046,719.069,1132.807,718.947,1133.4,718.983Zm27.715-2.937c.125.026.012.024-.1.029C1161.061,716.065,1161.077,716.057,1161.117,716.046Zm132.42,4.609c.54.081.157-.029.444.125C1294.326,720.916,1293.4,720.924,1293.537,720.655Zm132.109-4.08c.773.25-.536.5-.891.156C1424.151,716.738,1425.4,716.594,1425.646,716.576Zm52.524-23.773c.709-.042,1.06.071.667.248C1477.729,693.022,1477.94,693.014,1478.169,692.8Zm3.116-27.047c.741.1.379.412.223.618C1480.4,666.272,1480.869,666.04,1481.286,665.755Zm-4.842-90.242h0Zm-3.136-3.592c.014,1.229-2.246.034-2.724-.55.5.566.815-.443,2.439.123C1473.122,571.47,1475.429,572.49,1473.307,571.922Zm.446,21.864c-.666.008-.963-.1-.989-.261A3.052,3.052,0,0,1,1473.754,593.786Zm2.481,36.923c-.735.065-1.024-.292-.969-.036C1474.29,630.5,1476.77,630.343,1476.234,630.708Zm-3.844,5.444c-.373.3-3.236.117-1.578-.23C1470.44,636.564,1473.965,635.119,1472.391,636.152Zm-.016,9.9c-.691.136-.957.253-.656.556C1470.1,646.492,1470.719,645.916,1472.375,646.048Zm-.5,17.242c.02.782,2.862.569,2.1,1.015-3.85.527,2.32.728,1.164,1.516C1472.235,665.3,1469.587,664.365,1471.872,663.291Zm1.174-.133c.718-.052.731.086.668.248C1473.3,663.314,1472.883,663.35,1473.046,663.157ZM1412.906,714c-.558.177-1.373-.31-.173-.089C1412.545,713.949,1412.587,713.986,1412.906,714Zm-1.732.368-.014-.005Zm-.038-.018c-.01-.005-.01-.013,0-.023Zm-14.222.926a5,5,0,0,0-1.558-.052C1394.489,714.471,1399.985,715.154,1396.915,715.272ZM1029.2,716.62c-.393-.253,1.177-.256,1.273-.037A4.167,4.167,0,0,1,1029.2,716.62Zm-12.421-.344-.046-.013C1016.8,716.265,1016.863,716.265,1016.781,716.276Zm-19.319,1.051a5.744,5.744,0,0,1,2.437-.188A4.673,4.673,0,0,1,997.462,717.327ZM895.6,718c.181,0,.371,0,.608-.008C895.985,718.112,895.917,718.047,895.6,718Zm-16.4.206c-.7.248-3.388.156-1.981.279C874.418,718.423,881.107,717.3,879.2,718.209Zm-111.6-.347c-.309.53-3.2-.3-.5-.451C768.091,717.624,766.527,717.591,767.595,717.862Zm-8.76.2c1.644-.694.01-.331-1.453-.151C755.907,717.056,763.274,717.611,758.835,718.06Zm-5.077-.537c.506.015,1.315-.078,1.409.1A1.526,1.526,0,0,1,753.757,717.523Zm-18.327.962c-.064-.1.349-.156.582-.065A1.334,1.334,0,0,1,735.43,718.485Zm-146.253.848c-.789-.224.273-.211-.793-.493C589.357,718.7,590.638,719.307,589.177,719.333Zm-.283.036c-.514.065-.953.1-1.3.123A4.568,4.568,0,0,1,588.894,719.37Zm-105.705-1.43a12.86,12.86,0,0,1-1.772-.089C481.714,717.651,483.613,717.551,483.189,717.94Zm-117.556-1.659c-.247.72-1.919.7-.891.125.3-.415-.765-.31-1.582-.161C360.217,715.571,367.141,716.258,365.633,716.281Zm-8.893-1.33c-1.67-.334-3.6-.005-5.323-.876C353.8,714.581,355.47,714.3,356.74,714.951ZM89.91,716.028c-5.022.271-1.714-.292-.112-.657C91.123,715.4,92.323,715.611,89.91,716.028Zm-8.967-2.762c-1.066-.292.785-.36.976-.1A2.587,2.587,0,0,0,80.942,713.266Zm-9.3.057c-5.719-.1,1.415-1.724-1.114-.378C71.234,712.916,72.24,713.041,71.646,713.323Zm-4.195-1.972c-.389-.086-.044-.063.255-.076C67.727,711.3,67.665,711.33,67.452,711.351ZM21.1,648.7c.151.49,1.437,0,.048-.01.687-.073,1.477.235,1.758-.243,2.6.172.787.295,2.5.146,1.218.676-5.759-.021-2.461,1.062C22.1,649.427,19.447,649.056,21.1,648.7Zm-1.243-1.244c.153.089.05.078-.171.049C19.736,647.488,19.8,647.473,19.86,647.455Zm-.8-4c.958-.172.141-.595-.04-1.028C20.948,642.6,20.679,643.983,19.057,643.458Zm-.6-.54c-.042-.17-.116.07-.379.115C16.765,642.423,19.268,642.211,18.459,642.919Zm1.777-37.611.006.016C20.207,605.318,20.2,605.315,20.236,605.307Zm4.677-1.231a2.25,2.25,0,0,1-1.558-.308A8.822,8.822,0,0,1,24.913,604.076Zm-.749-3.151.3.071A.742.742,0,0,1,24.164,600.925Zm-2.314-7.465a.664.664,0,0,0,.181.209C21.207,593.676,20.848,593.6,21.851,593.46Zm3.188-1.959c.293.047.173.154.265.263C24.485,591.733,24.794,591.621,25.039,591.5Zm1.524-55.516c.1-.183.108-.336.875-.269C27.125,535.86,27.2,536.069,26.563,535.985Zm15.685-38.623c.048.72,2.322,1.054-1.56.313,1.1-.347-1.285-.185-1.779-.052C39.392,496.788,40.118,497.537,42.248,497.362ZM44.7,488.9c2.453-.326,3.081,1.81,4.679.524C51.426,490.682,44.6,489.67,44.7,488.9Zm-.668-.939c-3.752-.11.608-1.281-2.9-1.3C45.341,486.1,44.041,487.512,44.029,487.961Zm-3.563-2.35a8.654,8.654,0,0,0,.891.1C41.387,485.934,40.11,485.744,40.466,485.611Zm.444.835c-.472-.156-.275-.287-.221-.469C40.965,486.072,40.937,486.276,40.911,486.446Zm-.891-1.565c.524-.031.47.065.446.156C39.911,484.959,40.205,485.05,40.02,484.881ZM41.8,478.3c-.295.647-2.009-.331-.444-.365C41.885,477.989,40.965,478.208,41.8,478.3Zm4.679,7.416c.476-.266.974.169.668.261.084.55-4.189.01.221.629-.151.79-2.128-.138-2.893-.472-.863-.026-2.5.326-2-.261,1.439-.188,2.788.339,1.335-.365C45.351,485.4,46.9,486.6,46.48,485.715Zm2.226-.156c-.365.4-1.17-.35-1.558-.47C48.411,485.042,47.9,485.413,48.706,485.559Zm0,3.6c.243.034.745.021.668.107C48.985,489.273,48.571,489.284,48.706,489.161Zm.223-2.348c-.229-.172-.335-.253-1.114-.1C47.415,486.406,49.456,486.482,48.93,486.813Zm-.891.678c1.259.269-.837.743-2.228.313C46.465,487.171,48.252,488.446,48.039,487.492Zm-.223-3.5c.169.1.265.125.223.211C46.863,484.14,46.873,483.863,47.816,483.991Zm-4.9-.522c-.488-.091.171-.143.446-.209C44.215,483.232,43.539,483.477,42.916,483.469Zm2.228,0c.311.35-1.351.112-.891-.156A2.23,2.23,0,0,1,45.143,483.469Zm-.446,1.985c.7-.41.839-.712,1.56-.052A5.12,5.12,0,0,0,44.7,485.454Zm1.337-9.714a3.488,3.488,0,0,0-1.558.052C42.144,475.441,46.807,475.242,46.034,475.741Zm-2.672,2.194c-.462.545-1.859.052-.67-.209C42.945,477.869,44.916,477.736,43.362,477.934Zm2.449,10.027c-1.012.06-1.7.052-1.558-.209A6.843,6.843,0,0,1,45.811,487.961Zm4.9-3.655c.689-.548,1.831.587.223.626C49.85,484.685,52.249,484.565,50.711,484.307ZM52.2,502.568c.028-.013.032-.031.046-.049C52.249,502.535,52.231,502.55,52.2,502.568Zm-.006.005c-1.9.164-1.188.66-2.15.793-.387-.175-1.042-.543.223-.313C47.889,502.242,52.114,502.6,52.194,502.574Zm1.413,1.68a4.271,4.271,0,0,1-1.781.261A11.307,11.307,0,0,1,53.606,504.253ZM436.679,400.7c.177-.123-.042-.389.67-.261C437.191,400.541,437.357,400.737,436.679,400.7Zm442.874.986c2.744.188-2.634.3-.283.026C879.141,401.927,879.982,401.807,879.553,401.684ZM1470.6,541.721a.42.42,0,0,1,.221-.256C1471.852,541.484,1471.149,541.687,1470.6,541.721ZM1471.906,571c-1.73.4-1.148-.595.249-.316A.667.667,0,0,0,1471.906,571Zm4.481,13.486a1.551,1.551,0,0,1-.869-.091C1476.29,584.39,1477.5,584.236,1476.388,584.489Zm-2.86,28.323c.269.008.263.023.118.083A.749.749,0,0,0,1473.528,612.812Zm-2.744,23.093a1.809,1.809,0,0,0-.343-.01C1470.569,635.771,1470.653,635.816,1470.784,635.9Zm-.452.655c.012.013.006.008,0,0C1470.338,636.567,1470.384,636.583,1470.332,636.559Zm2.4,30.122c-2.013-.083-.532.211-.825-.545C1475.324,665.8,1474.529,666.277,1472.735,666.681Zm-1.935,9.012c.524.258-.1.11-.2.336C1470.173,675.928,1470.2,675.649,1470.8,675.694ZM766.19,717.126c-.53-.068.076-.086.347-.06C766.425,717.082,766.313,717.1,766.19,717.126ZM96.438,715.713c-1.779.034-1.779-.43-1.955-.49C95.057,715.021,103.673,715.566,96.438,715.713Zm-71.146-35.65c.434.373.325.548-.106.582C25.021,680.412,25.075,680.24,25.292,680.063Zm.068-29.708v.509C20.743,649.87,24.208,650.519,25.36,650.355Zm-.6-25.041a1.3,1.3,0,0,1,.538.13C24.786,625.481,24.666,625.418,24.762,625.314Zm-1.57-31.4c.106-.076.311-.154.349-.243C23.634,593.762,23.69,593.9,23.192,593.914Zm.456-.352c.267.091,1.7-.12,1.712.06A1.637,1.637,0,0,1,23.648,593.561Zm3.26-58.025.084-.081C27.03,535.5,27.01,535.529,26.908,535.536Zm-1.387-2c1.092.323-1.146-.905-.187-.717C26.958,533.411,27.689,535.127,25.521,533.536Zm13.608-32.52a1.45,1.45,0,0,1,.891-.052C40.253,501.17,39.177,501.246,39.129,501.016Zm0,4.231c-.8-.01-1.14-.164-.668-.313C39.066,504.83,39.219,505.106,39.129,505.247Zm4.009-6.894c7.409-.506-2.314,2.056,1.112.574-3.168-.524-4.007.963-4.452-.678C41.315,498.637,42.579,498.979,43.139,498.353Zm5.344,5.483c5.637-.425-5.207,1.278,1.56.991-3.119,1.109-4.213-.647-6.237.211,1.935-.908-1.353-.331-.446.052-1.218.383-.153-.955-1.781-1.1,3.8-.556,3.991.746,4.9-.076C44.522,503.291,49.348,504.642,48.483,503.836ZM474.319,714.077a6.694,6.694,0,0,1,1.072.128C474.8,714.129,474.182,714.226,474.319,714.077Zm21.744-2.011a11.353,11.353,0,0,1-1.594.17C492.642,712.168,496.727,711.682,496.064,712.066Zm-21.314,2.442c.365.021.9.131.345.2A1.139,1.139,0,0,1,474.75,714.507Zm-11.655-1.142c-.628.044-.679-.149-.783-.266C463.485,713.151,463.579,713.247,463.094,713.365Zm.534.9c-.243.232-.654.263-.861.61C461.4,714.729,462.485,714.429,463.629,714.265ZM98.817,716.344c-3.041-.193,2.585-.931,1.56-.062A4.128,4.128,0,0,0,98.817,716.344ZM25.137,682.7c.014-.076-.1-.159.223-.206C25.28,682.517,25.567,682.778,25.137,682.7Zm4.884-147.283a.581.581,0,0,1-.022-.091C30.116,535.375,30.373,535.445,30.021,535.414Zm-3.419-.522c-.149-.261.552-.06.851-.326C27.685,534.77,27.179,534.963,26.6,534.892ZM25.4,532.818c.823-.3,2.435-.07.817.112C25.892,533.515,26.34,532.85,25.4,532.818Zm24.2-26.945c-.313.2-.915.4.446.313C48.6,506.862,47.473,505.847,49.6,505.873Zm.891-.157c-.361.1-.8.141-.873-.036A4,4,0,0,0,50.488,505.717ZM26.723,534.308c.052-.008.143-.01.217-.016C26.88,534.3,26.8,534.305,26.723,534.308Zm1.7-.232a3.279,3.279,0,0,0,1.08-.188A.806.806,0,0,1,28.427,534.076ZM99.6,715.021c-.132-.018-.261-.034-.393-.049C99.6,714.867,99.937,714.839,99.6,715.021Zm-48-208.887c.584-.553.845-.237.779.029C51.62,506.275,49.637,506.259,51.6,506.134Zm-12.026-3.5c.775-.477,4.914.331,1.781-.472C44.289,502.482,45.373,503.317,39.576,502.636Zm3.119-1.881c.735.154.018.35-.893.313C41.507,500.857,42.637,500.9,42.694,500.755Zm.444-.313c1.212-.19,2.252-.5,1.337.052C43.858,500.416,43.234,500.581,43.139,500.442Zm1.335.574c-.026.013-.426.211-.444.156C43.593,501.1,44.087,500.988,44.474,501.016Zm-.223.887c1.026-.193-.219-.712,1.56-.574C48.328,500.93,46.67,501.916,44.251,501.9Zm.67-2.4c-.034-.206.978-.37.67-.211A.963.963,0,0,1,44.92,499.5Zm-2.672-.159c-.108.31-2.868.983.223.994C42.527,501.538,36.557,498.875,42.248,499.344ZM40.02,503.21c-.143.091-.044.052-.223.1C39.3,503.541,39.183,503.025,40.02,503.21Zm.446,2.454c-.807-.039-.618.005-.891-.156C40.191,505.5,40.967,505.472,40.466,505.665Zm2,.835c-.1-.235,0,.1-.446.1-.414-.164-.6-.289-.668,0C39.705,505.372,47.409,506.992,42.471,506.5Zm-12.7,27.879c-.823.449-.9.42-.221.819C28.745,535.323,28.1,534.232,29.776,534.378Zm.211,1.591c.409-.24,1.3.256.139.185C30.646,536.147,30.479,536,29.987,535.97Zm.456-.206c-.13-.047-.327-.107-.026-.109A.746.746,0,0,1,30.443,535.763Zm.345-.532a3.28,3.28,0,0,1,.891.277C31.611,535.826,30.74,535.445,30.788,535.231Zm-6.126,25.013a1.42,1.42,0,0,0,.546-.248C25.677,559.834,24.955,560.374,24.662,560.244Zm.831,54.146a.69.69,0,0,1-.223.065A.852.852,0,0,1,25.493,614.39Zm-3.252,31.231H20.9C19.282,645.409,21.871,645.323,22.241,645.621Zm439.825,70.112c.106.06.028.057-.183.034C461.941,715.754,462.006,715.746,462.066,715.733Zm3.631.279c-.331.175-.628-.154-.309-.248C465.946,715.8,466.273,715.916,465.7,716.012Zm290.76.879c-.145-.248.3-.026.721.023Zm8.979.138c.187.018.616-.018.506.063C765.787,717.069,765.6,717.056,765.437,717.03Zm704.937-40.194c.359.063.215.162-.014.222C1470.326,676.99,1470.424,676.854,1470.374,676.836Zm1.9-63.889c.187.01.281.047.275.112A1.345,1.345,0,0,1,1472.269,612.947Zm-.907.034c-.5.2-.813.193-.943.091C1470.755,613.039,1471.073,613.007,1471.362,612.981Zm-437.9,102.624a20.047,20.047,0,0,1-2.678-.3A3.241,3.241,0,0,1,1033.466,715.605Zm-11.906-1.57a4.194,4.194,0,0,1-1.156-.2C1020.968,713.811,1022.484,713.829,1021.56,714.035Zm11.619,0c-.488-.039-.578-.331-.954-.4C1032.219,713.427,1034.042,713.7,1033.179,714.033Zm-.016-1.142c.038-.065-.369-.021-.512-.086C1033.506,712.752,1033.721,712.989,1033.163,712.89Zm-19.772,3.886c-1.893-.151.355-.1.763-.313C1014.954,716.644,1013.543,716.612,1013.392,716.777Zm16.263-1.922c1.273-.284.8.326.446.156C1029.807,714.953,1029.833,714.974,1029.654,714.854Zm120.116-.9c-.022-.2-.317-.389.781-.172C1152.744,713.576,1150.444,713.881,1149.771,713.957Zm278.509-2.337c-.688-.086.1-.243.659-.185A3.911,3.911,0,0,0,1428.28,711.62Zm44.766-35.9q1.121-.063.891.248C1473.2,676.007,1472.325,675.944,1473.046,675.72Zm-1.415-9.547c-.078.144-.108.331-.138.373C1471.005,666.46,1470.99,666.251,1471.631,666.173Zm-1.184-26.319c-.652-.616,1.351-.021.157,0C1470.647,639.681,1470.625,639.632,1470.448,639.854Zm.221-1.216c-.59.1-.179-.49-.295-.535C1470.483,638.349,1471.292,638.534,1470.669,638.638ZM1472,612.76c-.865.045.255-.462,1.309-.574C1473.357,612.355,1472.693,612.616,1472,612.76Zm3.448-28.437c-.126-.373-.054-.673,1.056-.209A1.586,1.586,0,0,0,1475.445,584.322Zm-1.638-2.05a.754.754,0,0,1-.161-.013A1.576,1.576,0,0,1,1473.807,582.272Zm-3.4-12.586c-.048-.057.04-.07.215-.05C1470.549,569.652,1470.479,569.671,1470.412,569.686Zm0-.811a2.613,2.613,0,0,0,.472.021A.463.463,0,0,1,1470.412,568.875Zm1.52-.663c-1.973,1.878-2.21-2.05-.458-.6C1470.017,567.61,1473.823,568.267,1471.932,568.213Zm-1.321-1.106c-.024,0-.018-.005-.014-.008Zm2.674-22.558c-.666-.308.988-.276.652,0C1473.714,544.554,1473.484,544.556,1473.285,544.549Zm-67.5-131.878c-.879.07-1.843-.1-1.114-.357C1404.925,412.486,1407.558,412.707,1405.786,412.671Zm-101.558-7.857c.735-.089,1.754-.24,1.781.052A5.169,5.169,0,0,1,1304.228,404.814ZM67.119,503.523c.271.1-.143.446-.6.522C66.061,503.914,66.85,503.687,67.119,503.523Zm1.18.146c-.387.06-.683-.018-.672-.089C68.066,503.6,68.263,503.474,68.3,503.669Zm.452.952c.028.149.157.076,0,.156C67.563,505.078,66.41,504.423,68.751,504.621Zm-7.608-.057c-1.018-.136-.68.2-1.746.055C59.411,504.366,61.374,504.277,61.143,504.564Zm-2.86.318c-.06-.177.161-.248.223-.368C58.62,504.673,59.353,504.879,58.283,504.882Zm.223-1.15c-.418-.013-.249-.063-.223-.209C58.712,503.51,58.431,503.664,58.506,503.732Zm-1.526-.008c.193-.117.249-.237.078-.326C58.08,503.372,57.933,503.831,56.98,503.724Zm-3.15.321a.967.967,0,0,1,.891-.052C54.292,504.05,54.483,504.162,53.83,504.045Zm-3.565-1.617c-.412-.123-.349-.185-.221-.313C50.843,502.078,50.253,502.3,50.265,502.428Zm-.668-9.036c1.008-.8-3.011-.816,0-1.1C49.051,492.5,53,493.186,49.6,493.392Zm-.444-.365c-.518-.091-.777.086-.891-.157A4.632,4.632,0,0,1,49.153,493.027ZM48.039,490.1c1.7-.06.689.816.444.261C47.477,490.45,48.1,490.369,48.039,490.1Zm2.226-.782a1.535,1.535,0,0,1,.67-.159C51.07,489.278,50.643,489.294,50.265,489.32Zm.223.939c-.61-.5,1.945.044,1.56.313C51.191,490.483,50.663,490.489,50.488,490.259Zm.446-3.081c-.03.224-.582.36-1.337.417C49.758,487.361,50,487.176,50.934,487.178Zm-.446-2.142a4.018,4.018,0,0,1-.668-.052C49,484.9,50.723,484.7,50.488,485.037Zm-.223,1.829c-.771-.052-.646.044-.668-.1C49.986,486.753,50.4,486.743,50.265,486.866Zm-4.009,2.872c-.128.647-1.2.237-2,.261C44.9,489.5,45.558,490.037,46.255,489.737Zm-.221,3.446c.257-.123,1.787-.712.96-.36.494.347,2.555.436.375.308.745.626.494.133,2.228.313C50.328,494.555,40.592,493.071,46.034,493.183Zm-2.672,3.185c1.483-.243-.41-.321-.891-.574C44.269,495.867,45.893,496.441,43.362,496.368ZM39.8,499.344c-.982-.05-1.206-.172-1.114-.365A1.55,1.55,0,0,1,39.8,499.344Zm.444,6.737a3.644,3.644,0,0,0-1.345.485C37.882,506.447,39.066,506.04,40.243,506.082ZM31.557,539.5l.986.162C31.685,539.645,30.417,539.64,31.557,539.5Zm-8.011,52.883c-.173.008-.239-.013-.191-.063C23.419,592.346,23.489,592.367,23.546,592.388Zm-.939-.25c.09.016.175.037.261.055A.4.4,0,0,1,22.608,592.137Zm.97,2.285c1.556-.167,1.487.284.407.443C23.526,594.829,24.068,594.647,23.578,594.422Zm.666,8.011c-.849-.451-.038-.514.446-.206C25.276,601.6,26.221,602.545,24.244,602.433ZM23,613.37c.339.2.656.024.536.378C26.25,614.646,20.611,613.579,23,613.37Zm-1.732,2.708a1.172,1.172,0,0,1,.562-.091C21.8,616.088,21.179,616.2,21.271,616.078Zm-.811,27.95c.209.091.327.146.389.243C20.571,644.267,20.432,644.1,20.46,644.027Zm3.1,13.666a2.967,2.967,0,0,0-.691.115C22.082,657.719,23.393,657.427,23.562,657.693Zm-.62.65a1.883,1.883,0,0,0,.805-.54C24.337,658.311,24.6,658.311,22.943,658.342Zm.855-.809c.3-.8,1.734.475,1.094-.48C25.408,657.307,25.864,657.531,23.8,657.534Zm1.116,21.157a.466.466,0,0,1,.2.2C25.089,679.051,23.628,678.68,24.913,678.691Zm-1.819,1.683a2.08,2.08,0,0,1,.715.146C23.576,680.477,23.337,680.428,23.094,680.373Zm-.412,1.388c-.409.055-1.283.013-.8-.157C22.136,681.656,22.4,681.709,22.682,681.761Zm34.637,29.778c.187-.318.568-.465,1.65-.371C59.078,711.4,58.174,711.9,57.319,711.539Zm25.242,2.413a1.552,1.552,0,0,1-1.114.313C81.594,714.012,81.9,713.837,82.561,713.952Zm1.112.691c-.07.151-.347.224-.891.19C82.853,714.679,83.128,714.609,83.672,714.643Zm274.123.563c.134.039.261.078.4.117C357.975,715.329,357.844,715.305,357.8,715.206Zm107.058,1.132c.122.052.018.052-.153.081C464.5,716.38,464.621,716.357,464.854,716.338Zm143.84,2.635c.08-.172,1.243-.2,1.526-.052A7.669,7.669,0,0,0,608.694,718.973Zm128.139-.856c.6.18-.152.2-.725.047Zm2.662-.094c.52.008.486.021-.094.042C739.428,718.052,739.471,718.039,739.5,718.023Zm9.236-.315a3.852,3.852,0,0,0-1.257.362C744.842,717.776,747.173,717.833,748.732,717.708Zm13.058-.824c.161,0,.213.01.04.034Zm139.249,1.169a.247.247,0,0,0,.1.026C901.108,718.07,901,718.06,901.039,718.052Zm5.637.128h0C906.68,718.175,906.686,718.18,906.676,718.18Zm.672-.349a3.309,3.309,0,0,1,.44-.1C907.618,717.786,907.614,717.875,907.347,717.831Zm236.927-2.932h0C1144.324,714.9,1144.315,714.9,1144.275,714.9Zm269.705-2.4c.406.013.664.063.492.237C1413.867,712.809,1413.586,712.653,1413.98,712.5Zm10.605-.052c.114-.456,1.423-.376.052-1.007C1430.021,711.145,1423.609,713.667,1424.585,712.444Zm4.312.06c.414.031.783.055,1.036.089A9.073,9.073,0,0,1,1428.9,712.5Zm8.525-1.129c.755-.018,1.531.1,1.245.313C1438.291,711.6,1437.815,711.492,1437.422,711.375Zm33.175-38.811a.5.5,0,0,1,.221-.308C1471.852,672.279,1471.149,672.522,1470.6,672.564Zm2.487-1.839c-1.6.318-1.8.308-1.744-.224,1.421.566,2.078-.357.008-.005.1-.5,2.676-.433.845-.814-.582-.013-1.06.934-1.865.363C1471.346,668.544,1475.232,670.007,1473.084,670.724Zm.779-6.338c-.092.07-.193.141-.3.214C1473.524,664.537,1473.6,664.464,1473.863,664.386Zm-3.37-16.078c.042-.055-.141-.2.1-.131C1470.878,648.227,1470.657,648.255,1470.493,648.308Zm-.12-6.119c.122.021.235.034.345.044C1470.541,642.23,1470.312,642.266,1470.374,642.188Zm1.389-3.84c-.688-.279.139-.263.8-.316C1472.058,638.148,1472.1,638.257,1471.763,638.349Zm-1.409-1.766c.044.01.034.047.068.065A.638.638,0,0,1,1470.354,636.583Zm3.974-.545a.887.887,0,0,1-.295.026A.573.573,0,0,1,1474.327,636.037Zm.5-5.066c-.14-.227.606-.143,1.182-.133A3.02,3.02,0,0,1,1474.828,630.972Zm-1.782-61.212c1.068.527-2.252.308-1.162-.086C1472.693,569.324,1475.33,569.9,1473.046,569.759Zm.406-2.175c-.544.77-.829.373-1.134-.232A7.851,7.851,0,0,1,1473.453,567.584Zm.484-25.709c3.418.446-1.21.456-2-.256A2.528,2.528,0,0,1,1473.937,541.875Zm2.451-7.857c.313.094-.024.1,0,.206C1475.906,534.23,1476.376,534.063,1476.388,534.018Zm1.112.874c-.728.331-3.354.073-1.558-.154C1476.7,534.59,1476.344,535,1477.5,534.892Zm-3.117-.464c-.6-.1.412-.488,1.112-.511C1476.533,534.232,1475.368,534.287,1474.383,534.428Zm.667,3.751c3.585.569-.719,1.586-.891.769C1476.916,539.076,1474.319,538.448,1475.051,538.179Zm-3.563.822c6.357.853-2.9,2.76.893.616C1470,539.77,1469.941,539.619,1471.488,539Zm0-17.1c3.449-.483,7.283.845,4.677,1.129C1473.06,521.712,1468.628,523.41,1471.488,521.9Zm-1.114-8.264v-.506C1471.524,513.292,1474.991,512.642,1470.374,513.636Zm4.454-5.243h-1.335C1473.861,508.1,1476.449,508.182,1474.828,508.393Zm0-1.182c.018-.23.14-.279.446-.409C1477.031,506.724,1476.214,507.284,1474.828,507.211Zm-3.563-15.559c2.268-.733,5.52.524,3.119.206C1473.387,492.544,1468.311,492.586,1471.265,491.652Zm-.667,19.566c1.046.6,1.212-.431,3.34.36C1479.132,511.6,1467.983,513.482,1470.6,511.218Zm-25.391-100.191c-.048.057.159.175-.221.154C1444.849,411.1,1444.61,411,1445.206,411.028Zm-10.245.1c-.179-.449,1.467-.193.223.154C1432.8,411.333,1433.435,410.861,1434.961,411.132Zm-8.463-.308c1.142-.005,2.6.2,1.114.308C1427.467,411.254,1426.343,410.936,1426.5,410.824Zm-17.149-.154c.516.037.307.057.223.154C1408.976,410.855,1409.216,410.754,1409.349,410.67Zm-.667,1.13a12.977,12.977,0,0,0,1.335.154C1410.15,412.324,1406.85,411.982,1408.682,411.8Zm-1.56.05c1.678.125-.809.54-1.558.566A2.685,2.685,0,0,1,1407.121,411.849Zm-2.9-.923c1.158-.227,2.3-.222,2.228.154C1404.9,411.1,1402.741,411.411,1404.226,410.926Zm-7.349-.874c-.115.13-.038.044,0,.206C1396.47,410.268,1396.209,409.987,1396.877,410.052Zm-75.723-4.93c.129-.164.263-.188,0-.308C1321.054,404.222,1322.75,405.224,1321.154,405.122Zm-12.472-1.49c.6-.029.357.07.223.157C1308.243,403.732,1308.4,403.784,1308.681,403.632Zm-9.8.36c3.651.668,6.319.073,8.463.206C1304.614,405.028,1299.065,405.015,1298.881,403.992Zm-5.627-.19c.241.4,5.426-1.171,2.063.243-2.975-.19-.917.368-2.67.616C1290.073,404.564,1293.736,404.019,1293.254,403.8Zm-10.185.344c-.988.2-3.962.454-2.228-.1C1280.592,403.925,1281.855,404.173,1283.069,404.146Zm-14.477-1.077a1.221,1.221,0,0,1-1.337-.206C1267.865,402.928,1268.11,402.991,1268.592,403.069Zm-8.463-.514a4.005,4.005,0,0,0,1.558-.154C1267.815,402.774,1259.432,403.08,1260.129,402.555Zm-3.786,0c-.761.35,1.919.029,1.337.308C1261.934,403,1251.758,403.038,1256.343,402.555Zm-40.089,0c.022-.3,1.841-.569,1.781-.154C1217.108,402.409,1217.1,402.594,1216.253,402.555Zm-5.344-.1c.167.055.14.047.221.154C1210.243,402.521,1210.106,402.574,1210.909,402.454Zm-2.9-.566c1.409.159-1,.2-1.114.052C1207.475,401.914,1207.8,401.908,1208.014,401.888Zm-2.228-.1c1.164.177.524.376,1.337.563C1206.011,402.31,1204.116,401.8,1205.786,401.786Zm-22.717.05c-.108.1-.245.076-.223.154C1182.63,401.932,1182.473,401.8,1183.069,401.835Zm-.446,3.391c.518.036.5.052.891.1C1183.854,405.766,1180.951,405.362,1182.622,405.226Zm-28.285-3.853c1.22.076,1.194.159,1.114.462C1153.82,401.551,1151.678,401.8,1154.338,401.374Zm-23.831.514,1.337.052C1131.268,402.028,1129.887,402.14,1130.507,401.888Zm-29.4.154c-1.01.008-1.662-.154-1.781-.36C1100.915,401.431,1100.991,401.726,1101.109,402.041Zm-37.862-.1c1.515-.117,1.172.235,1.335.514C1063.566,402.587,1061.888,402.221,1063.247,401.94Zm-12.472.871c-.144.089-.044.052-.223.1C1050.091,403.025,1049.924,402.725,1050.775,402.811Zm-5.568,4.982h1.335C1047.016,408.049,1043.906,408.012,1045.207,407.793Zm-1.337.616c.413.031,1.054.018.891.154C1044.145,408.568,1043.37,408.6,1043.87,408.409Zm-45.362-8.3c.711.034.034-.073,1.042-.12C999.718,400.2,996.6,400.429,998.508,400.109Zm-30.855,1.231c.416.008,1.911-.248.95.073C968.37,401.376,966.286,401.653,967.653,401.34Zm-72.176.767c.167-.018.219-.188,0-.313C895.379,401.194,897.075,402.211,895.477,402.107ZM883,400.594c.6-.031.357.07.223.157C882.566,400.693,882.727,400.745,883,400.594Zm-1.337.574c-.472.316-.57-.169-1.3-.026C881.137,401.061,881.47,400.956,881.667,401.168Zm-8.461-.209c3.623.378,4.107.561,6.787.214C880.476,402.049,872.881,401.942,873.206,400.959Zm-3.539-.318c1.885.188-3.011.715-2.09.123A10.07,10.07,0,0,0,869.667,400.641Zm-1.584-.256c-1.945-.6,1.445-.284-.223.156C866.8,400.453,867.053,400.275,868.083,400.385Zm-1.987,1.033c.327.076.656.143.638.206C866.1,401.585,865.969,401.509,866.1,401.418Zm-9.872-.344c.359.029.763.05,1.168.042C856.862,401.2,855.481,401.454,856.224,401.074Zm-13.309-1.054a1.2,1.2,0,0,1-1.335-.209C842.188,399.876,842.433,399.942,842.915,400.02Zm-8.463-.524c.624.008,2.379.308,2.959-.065C840.6,400.015,833.239,399.8,834.452,399.5Zm-3.786,0c-.779.368,1.925.021,1.337.316C836.257,399.949,826.081,399.988,830.666,399.5Zm-40.089,0c.022-.305,1.841-.576,1.784-.156C791.433,399.349,791.425,399.535,790.577,399.5Zm-8.24-.678c1.411.162-1,.2-1.114.052C781.8,398.846,782.124,398.838,782.337,398.817Zm-2.228-.1c1.166.18.524.383,1.337.574C780.334,399.245,778.439,398.729,780.109,398.713Zm-22.717.052c-.106.1-.245.076-.223.156C756.954,398.862,756.8,398.731,757.392,398.765Zm-28.731-.469c1.219.076,1.194.162,1.114.469C728.145,398.476,726,398.731,728.661,398.3Zm-23.829.522,1.335.052C705.591,398.961,704.211,399.076,704.832,398.817Zm-29.4.156c-1.01.008-1.664-.154-1.783-.365C675.238,398.353,675.314,398.653,675.434,398.974Zm-37.864-.1c1.517-.117,1.174.24,1.337.522C637.889,399.527,636.211,399.157,637.57,398.87Zm-12.472.889c-.144.089-.044.05-.221.1C624.414,399.975,624.249,399.668,625.1,399.759Zm-5.568,5.065a3.7,3.7,0,0,1,1.156.136C620.082,405.051,618.548,404.992,619.53,404.825Zm-77.951-6.581a3.1,3.1,0,0,0,1.337-.1C544.276,398.194,541.055,398.747,541.579,398.244Zm-105.345.209c.088-.248,1.237.128.891.313C436.135,398.747,435.76,398.606,436.235,398.452Zm-.891,1.359c-.984-.347-3.262-.691.223-.368C439.581,398.423,438.716,400.1,435.344,399.811Zm-13.81-.629c-.141-.133.211-.227.67-.1C421.875,399.209,422.258,399.141,421.534,399.182Zm2-.313c-1.989.016-.62-.571.446-.574C423.685,398.5,423.78,398.713,423.539,398.87Zm-12.694.994c.59.008-.062.2-.446.156A1.541,1.541,0,0,1,410.846,399.863Zm-7.572-.316a2.407,2.407,0,0,1,.444.052C403.291,399.738,402.895,399.717,403.273,399.548Zm-20.045-.47a1.738,1.738,0,0,1,.889.1C383.99,399.3,382.541,399.263,383.229,399.078Zm-6.46-.052c1.777.295,2.752-.183,4.545.136C383.023,399.016,375.507,399.8,376.768,399.026Zm-2.226.365c-1.243.357-1.469-.089-2.451-.209A9.326,9.326,0,0,1,374.542,399.391Zm-2.451-.522c.245-.094.173.266,1.337.1C373.159,399.154,371.254,399.169,372.091,398.87Zm-1.335-.417c1.247.039.8.3-.223.261C370.487,398.515,370.433,398.619,370.756,398.452ZM274.1,403c-.4.274-.644.057-.891-.1C273.743,402.939,273.556,402.949,274.1,403Zm-79.286.209c-1.367-.146-1.855.24-2-.1A4.723,4.723,0,0,1,194.81,403.2ZM62.6,503.21c1.237.595-.855.79-2.642.762,2.274-.738-2.132-.707-3.906-.814,5.817-.156-.357-.662,4.9-.052A1.746,1.746,0,0,1,62.6,503.21Zm-3.653-23.76c.052.12.044.146.223.209C59.252,480.018,57.847,479.246,58.951,479.45Zm-.221-1.516c.811-.031,1.465.026.891.209C59.124,478.211,58.512,478.117,58.73,477.934Zm.444.469c1.106.068-.209.467-.891.313C58.672,478.552,58.957,478.636,59.174,478.4Zm-.668,1.411c-.048.057.157.175-.223.157C58.11,479.87,57.841,479.617,58.506,479.815Zm-1.114-3.6c-.108.1-.245.078-.223.157C56.954,476.309,56.8,476.176,57.393,476.21ZM54.72,501.329c1.1-.243,1.164.72,2.672.7.566-.829,3.76.334-1.781.031C51.675,502.847,56.791,501.747,54.72,501.329Zm.444,1.933c-.082-.175-.06-.086,0-.261C55.5,503.067,55.932,503.306,55.165,503.262Zm-.275-.365c-.044-.086.072-.039-.393-.115C54.346,503.7,54.344,502.018,54.89,502.9Zm-1.506.365c3.3.527,1.744.519-.446.4C49.908,502.7,54.768,502.576,53.383,503.262Zm-.223-2.924c-.592-.06-2.212-.368-1.558-.052-3.6.848.915-.892.446-.835C53.391,499.386,52.989,500.349,53.16,500.338ZM51.6,483.209c2.236-.35.757-.013.668.365C50.01,483.816,49.336,482.987,51.6,483.209ZM49.82,483c.05.12.044.149.223.209C49.575,483.636,48.957,482.911,49.82,483Zm-.223,1.043c-1.269.005-1.261-.151-1.114-.417C49.077,483.774,49.826,483.788,49.6,484.043Zm-1.558-.782c.116-.266.267-.183,1.114-.1C49.3,483.313,48.535,483.229,48.039,483.261Zm-.223-27.678a2.458,2.458,0,0,1,.446.052C49.139,455.728,47.547,455.788,47.816,455.582Zm0,22.456c-1.058.11-.833-.091-1.558-.209C46.281,477.582,48.2,477.851,47.816,478.039Zm-1.337-2.768c-.028.115-.548-.029-.668-.1C46.2,475.154,46.991,475.174,46.478,475.271Zm-2-21.358c1.863.222,3.111.636.891.261C44.52,454.847,42.021,454.106,44.476,453.913Zm-1.337,21.671c.582.128.955.352.223.469C43.033,475.889,42.848,475.782,43.139,475.584Zm.446.835c.209.169-1.168.055-1.337-.052C42.2,476.025,44.3,476.231,43.585,476.419Zm-1.337-22.141c.785.044.339.269,0,.469C42.144,455.061,41.517,454.322,42.248,454.278Zm.223,21.41c.767.274-1.493.175-1.337-.052Zm-2.674,1.2c.275-.36,1.646.451,1.783.574C40.658,477.243,39.086,477.243,39.8,476.891Zm.223,6.526c.869-.008.717.245,0,.261C40.13,483.558,40.052,483.6,40.02,483.417Zm0-1.565c.847-.034.191.175.223.261C39.859,481.993,39.986,481.956,40.02,481.852Zm-.221-4.439c1.4.394.275.73-.891.261-.068.37-.243-.026-.891.209C38.416,477.1,39.337,477.7,39.8,477.413ZM33.785,479.5c-2.6-.861-.984-.339,1.337-.889,2.493-.128,1.477.743-.223.42C33.085,479.1,35.246,479.687,33.785,479.5Zm-1.56-2.35c.173-.2.213-.13.223-.261C33.827,476.8,33.556,477.321,32.225,477.152Zm4.009,4.437c.817-.451.684-.282,2.228,0C36.766,482.415,35.094,481.114,36.234,481.589ZM37.794,476a7.234,7.234,0,0,0,1.558.313C39.094,476.578,37.258,476.262,37.794,476Zm1.112-21.619c-.735.018-.46-.12-.444-.261C39.237,454.21,39.918,454.257,38.906,454.383Zm-.221-1.1c.65.016-.122.094,0,.159C38.123,453.357,38.452,453.433,38.685,453.284Zm-.891.159c.2.224-1.793-.073-1.56-.211A15.676,15.676,0,0,0,37.794,453.443Zm-1.783,20.784c1.981.193,2.369,1.487,1.114.47C36.324,474.559,34.843,474.5,36.011,474.228Zm1.56,1.356c-.345.17-.124,0-.67.1C35.949,475.506,38.117,475.474,37.571,475.584Zm0,2.089c-1.911.01-5.548-.884-2.228-.626C34.706,477.564,37.872,477.311,37.571,477.673Zm-3.119-3.185c-.126-.086-.891-.347,0-.313C34.614,474.264,34.961,474.475,34.452,474.488ZM34.229,454.7c-.153.209-.159.475-.891.469C32.621,454.753,31.73,454.205,34.229,454.7Zm-1.112,18.486c.293.2-.8.177-.67,0A3.024,3.024,0,0,0,33.117,473.182Zm-.67,2.82c.8.1,1.5.185,1.56-.1C35.9,476.056,31.268,476.946,32.448,476Zm-2.226-.991c.157.256-1.321-.417-.446-.47C30.619,474.5,30.527,474.89,30.222,475.01ZM30,472.973c.735.029,1.381.151,1.335.313C30.515,473.21,30.238,473.169,30,472.973Zm1.781-17.912c.536.107.65.389-.223.209C31.629,455.149,31.661,455.142,31.78,455.061Zm-.223,23.972c.8.154.913.537.223.73C31.523,479.5,31.306,479.262,31.557,479.032Zm2,1.826c-1.453-.162-3.067.133-3.786-.417C30.092,480.48,36.985,480.457,33.562,480.858Zm-.446-1.2c.731.18,1.245.678,2,.678C34.175,480.689,32.569,479.992,33.115,479.658Zm3.342,3.237c-.393,1.406-3.416-1.174-.67-.417C36.545,481.756,40.293,483.1,36.457,482.9Zm.668.887c2.052.527,2.644-.073,3.788.365C41.549,484.57,36.806,484.129,37.125,483.782Zm1.337.994c-.108.1-.245.076-.223.156C37.511,484.982,37.89,484.724,38.462,484.776Zm0,.678c.052-.162,2.65,0,.891-.156C41.124,484.536,39.54,486.508,38.462,485.454Zm-.446.73c1.7.3,5.325,1.411,2.228.681C39,486.832,37.649,486.438,38.015,486.185Zm3.119,3.08c-.151-.029-3.34.138-3.119-.209C39.119,489.1,40.8,488.658,41.134,489.265Zm.223.524c-.978-.772,1.965.164,2-.313-3.868-.477,2.31-.318,1.337.209-2.738.026,1.122.832-1.114.991-.157-1.693-2.009.034-7.572-.47C37.344,489.732,37.732,489.837,41.357,489.79Zm2.449,2.715a2.255,2.255,0,0,1-.444.209C42.979,492.487,42.784,492.424,43.806,492.5Zm-2.226-1.881c.219-.613,1.975.076.891.209C40.779,490.867,43.342,490.588,41.58,490.624Zm-6.46.991c-1.335-.162.112.266-.891.316C33.588,491.694,35.74,490.864,35.12,491.616Zm.8-.77c.763-.042-.452-.073-.572-.169-3.392.1-1.883-1.325-.668-.157C36.059,489.56,37.242,491.1,35.915,490.846Zm1.656.613c-1-.2-2.041-.334.446-.313C40.15,490.843,38.553,491.389,37.571,491.459Zm2.449-.522c-.078.136-.281.154-.223.261C39.438,491.086,39.058,490.945,40.02,490.937Zm.67.052c-.917-.107,1.409-.2.889.052A5.453,5.453,0,0,1,40.69,490.989Zm.891.574c.265.133,1.409.13.668,0C44.579,491.636,42.168,492.025,41.58,491.563Zm.891,3.344c.8-.493,3.489.274,1.335-.052C43.306,495.134,41.692,495.382,42.471,494.907Zm-1.56,0c-.217.17-.829.308-.889.522C38.952,494.887,38.791,494.988,40.911,494.907Zm-3.34-.157c.385.245,1.7.266,1.781.574C38.779,495.176,36.625,495.173,37.571,494.751Zm-6.014,1.669c-1.034-.415,2.116-.837,1.558-.156C35.64,496.282,32.041,496.4,31.557,496.42ZM37.571,496c-4.163.386-4.484-1.531.223-.522,1.293-.083,9.6.866,2.224,1.513-2.8-1.364,1.57-.107,2.007-.574C43.34,496.246,34.64,495.019,37.571,496Zm1.335,7.259c-.048.057.159.177-.221.157C38.549,503.333,38.31,503.231,38.906,503.262Zm-.668-4.074c-.048.06.159.177-.223.157C37.641,499.185,37.356,499.018,38.239,499.188Zm-6.458,1.1c1.361.091,3.226.47,1.558.626C31.422,500.651,31.651,500.774,31.78,500.286Zm2,1.774c1.783.183,3.113-.162,1.335.42C33.671,502.133,32.2,502.759,33.785,502.06Zm-1.337.524c-.07-.055,1.628.117,1.337.261C31.713,503.142,32.982,502.923,32.448,502.584Zm3.563,1.2c-5.121.146-3.115-1.273-1.779-.365C35.156,503.28,36.507,503.536,36.011,503.784Zm.223-.626c.207-.43,1.078-.563,1.114-.052C36.407,503.033,36.937,503.113,36.234,503.158Zm1.114-.469c-.893-.149-.4-.138,0-.365C38.826,502.37,38.593,502.618,37.348,502.688Zm-3.119,3.863c.538.078,2.078-.274,2.324.182C36.059,506.64,34.429,506.969,34.229,506.551ZM23.919,534.96c.67.112,1.915,0,1.552.391C25.166,535.6,23.855,535.247,23.919,534.96Zm.289,2a3.207,3.207,0,0,1-.668.063C23.451,536.776,23.694,536.7,24.208,536.961Zm.143.939c3.4-1.323,2.923-2.593,2.949,0C25.73,537.686,25.687,538.361,24.351,537.9Zm2.977,5.039c-.434.052-.038-.107.02-.146A.6.6,0,0,0,27.329,542.939ZM22.2,544.262c.074-.621.917-.305,2.094-.18A8.42,8.42,0,0,1,22.2,544.262Zm-.7,4.226c.1-.219.351-.185.919-.091C22.265,548.555,21.958,548.506,21.5,548.487Zm1.5,7.669c-1.839.013,2.963,1.967,1.65,1.782C23.672,557.625,19.144,555.734,23,556.156ZM24.876,563c.012.021-.026.008-.064,0Zm-.223,2.029c-.616.1-.817-.151-.668-.2C24.527,564.819,24.764,564.863,24.652,565.033Zm-4.416,31.442c-.319.013-1.518.047-1.3-.138C19.4,596.412,20.478,596.472,20.236,596.475Zm3.3-.349c-5.018-.97,1.51-1.106,1.586-1.122C25.278,595.351,23.078,595.666,23.538,596.126Zm-3.73,3.709c2.278-.589.191-1.056,2.672-1-.331.141-.512.8.179.649-.608,1.046,3-.308,2.754.652C23.1,601.17,22.769,599.663,19.808,599.835Zm1.766,4.189c-.245-.063-.321-.18.221-.2C22.084,603.951,22.5,604.071,21.574,604.024ZM20.2,605.318c-.09.25.606.615-.853.555C18.172,605.759,19.589,605.453,20.2,605.318Zm-2.806,4.633c.4-.149.919-.681-.217-.8C19.421,608.844,18.766,610.06,17.393,609.95Zm7.967,10.382c-.751-.01-.357-.209-.446-.336C25.41,619.987,25.34,620.272,25.36,620.332Zm-.006,2.024Zm-.917,1.719c.281.167.132.141-.331.18C24.14,624.2,24.238,624.143,24.437,624.075Zm-5.982,2.8v-.206C19.431,626.454,19.2,626.811,18.455,626.876Zm2.6.227a.521.521,0,0,1-.263.235C20.81,627.242,20.886,627.158,21.055,627.1Zm1.475,1.5a7.242,7.242,0,0,1,2.7.639C26.324,629.947,17.56,629.214,22.53,628.606Zm-1.785.616a.244.244,0,0,1-.169-.073C20.635,629.172,20.693,629.2,20.745,629.221Zm-4.071,14.756a5,5,0,0,1,2.248-.482C19.059,644.04,19.057,644.457,16.674,643.978Zm3.2.055a.264.264,0,0,0,.159.365C19.419,644.3,19.218,644.082,19.87,644.032Zm5.492,7.619a.391.391,0,0,1,0,.235C25.228,651.709,25.023,651.7,25.362,651.652Zm-3.121,4.906c.562.023.062.146-.1.209C21.976,656.717,21.956,656.655,22.241,656.558Zm-3.659-.947c.155.05.331.1.512.146C18.547,655.877,18.507,655.765,18.583,655.611Zm1.62,2.937c1.335.12.556-.5,1.875-.149C21.33,658.444,19.5,658.911,20.2,658.548Zm-1.158,1.419c.229.269,1.006.151.522.289C18.09,660.338,18.786,660.163,19.045,659.967Zm2.726,1.069a1.009,1.009,0,0,0-.179.141C21.378,661.1,21.4,661.037,21.771,661.037Zm.642-1.315c-1.534.248-5.578.188-2.437-.454.572.428,1.247.162.554-.091C22.957,658.78,27.954,659.816,22.413,659.722Zm1.387,5.1c-.518-.1-1.684-.365-.223-.308C23.606,664.618,24.282,664.819,23.8,664.827Zm-.691,11.542c2.969-.112,3.091.866.383.436C26.858,678.477,19.278,677.707,23.108,676.369Zm-1.09-5.021c-.064-.133-.05-.248.668-.206C22.849,671.3,22.436,671.272,22.018,671.348Zm-1.781-.206c.7.023,1.716.407,1.114.514C20.366,671.515,19.2,671.46,20.236,671.142Zm-.891.1c.01.044.482.211,0,.2C19.368,671.351,19.031,671.34,19.346,671.246Zm.444.717c1.8.23-.829.488-1.558.154C19.39,672.227,19.031,671.815,19.79,671.964Zm-1.662.553c.608-.514,1.138.326-.136.289C18.423,672.709,18.565,672.582,18.128,672.516ZM16,673.557c.329.078.64.164,0,.2C16,673.9,15.115,673.56,16,673.557Zm-.446,2.413c2.521-.1.921.436,2.674.052C18.507,677.214,16.885,676.729,15.558,675.97Zm4.312.383c1.538-.156-2.736-.357.813-.949C19.828,675.814,22.588,676.753,19.87,676.354Zm2.4,1.729c.773.1.01.3-.933.42A5.367,5.367,0,0,1,22.269,678.083Zm-.719,1.03c2.652-.477.407-.167,1.359.811.261-.652.572-.24,1.889-.295C24.262,680.509,18.144,679.585,21.55,679.113Zm18.263,32.1c.616-.065.291.274.45.357C40.026,711.45,39.849,711.33,39.813,711.213Zm27.97,1.182c-.943.1-4.1-.094-.656-.326,1.116-.063,4.617-.449,2.108-.613C71.672,710.871,71.509,712.731,67.783,712.395Zm6.536,2.311c1.9.96-8.854-.749-4.009-1.069-.339-.576,2.774.347,4.677.441C75.417,714.518,72.224,714.737,74.319,714.706Zm4.9,3.4q-.84.051-.668-.188Q79.391,717.87,79.219,718.1Zm.891.128a5.343,5.343,0,0,1-.668-.128C79.83,718.1,80.247,718.083,80.109,718.232Zm-2.228-1.638c2.987.373-1.281.754,3.342.5C80.659,718.016,76.662,717.551,77.882,716.594Zm7.8-.816c-3.527.209-6.022-.029-3.786-.378-1.656-.264-1.186.292-2-.694-.548,1-2.885.125-1.6-.485-5.046,1.184,1.612-.973,3.6-.908-4.962,2.248,6.084,1.3.006,2.212C82.162,715.786,86.319,715.5,85.677,715.778Zm7.351,2.517c-1.271-.081-4.33-.858-1.337-1.007C91.109,717.739,91.948,718.076,93.028,718.295Zm2.913-.832a.291.291,0,0,0-.02-.365C97.92,717.285,97.319,717.778,95.942,717.463Zm105.809,1.49c.289-.128-.1-.034.446-.1C202.328,719.072,201.406,719.064,201.75,718.952Zm129.14-2.043c-.042-.026-.042-.047-.068-.07C330.93,716.873,331.157,716.889,330.89,716.909Zm6.211-1.432a6.172,6.172,0,0,1,2.447.258C339.068,715.671,337.944,715.587,337.1,715.478Zm17.861.224a7.176,7.176,0,0,0-1.987-.243c4.416.4-2.67.188-1.865-.07,1.21.06-.361-.566-.391-.089-5.317-.446-7.058-.671-2.985-1.263,2.983.261-2.033.091-1.439.652,2.812.128,3.137-.665,5.281.436-1.855-.441-1.883.052,0,0,.99.248,2.441.237,1.309-.245C351.2,714.338,356.086,715.475,354.962,715.7Zm2.953-.052c2.684-.31,6.283,1.328,1.9.853C362.646,716.1,359.926,716.091,357.915,715.65Zm.13,1.346c0-.029.056-.016.12-.008Zm.514-.005c-.016-.229,1.419-.519,1.062-.334C360.378,716.977,360.287,717.084,358.559,716.991Zm3.993.626c-.381.021-.175-.1-.223-.154C362.925,717.431,362.686,717.533,362.552,717.617Zm1.558-.41c.63-.19,2.21-.208,2.618-.443C366.847,717.051,366.1,717.28,364.111,717.207Zm9.577.564a2.585,2.585,0,0,1-1.335-.514C374.18,717.04,375.4,717.729,373.688,717.771Zm104.263.623c-1.465-.149-2.445-.417-.092-.441-.729.308-.811.5,1.361.151C482.017,718.89,478.709,718.076,477.95,718.394Zm62.218.665c.036-.026.058-.047.008-.091C540.511,718.976,540.356,719.01,540.169,719.059Zm8.194.128c-.177-.024.066-.076.09-.1C548.586,719.1,548.442,719.234,548.363,719.187Zm16.817.462c.823-.081,1.606-.279,1.006.063C566.343,719.964,565.578,719.688,565.179,719.648Zm1.122-.472a3.322,3.322,0,0,1,1.734.068C567.343,719.351,566.343,719.442,566.3,719.176Zm6.014-.19c-.068.065-.518-.055-.662-.081C571.655,718.806,572.825,718.944,572.315,718.986Zm37.862.125c-.267.008.2-.115.088-.165C610.328,718.989,610.332,719.038,610.177,719.111Zm86.191.19c-1.821-.2-.2-.363.859-.284A2.218,2.218,0,0,1,696.367,719.3Zm34.5-.7q.317.016.628.023A1.165,1.165,0,0,1,730.865,718.6Zm5.293-.107c.132-.042.291-.086.522-.136-.343.1-.13.149.307.138C736.72,718.522,736.4,718.493,736.158,718.493Zm7.5-.266c-.357-.125-1.353-.235-.138-.25C744.579,717.88,744.587,718.089,743.658,718.227Zm8.166-.185c-.51-.18-.976-.376.53-.451C751.824,717.885,753.937,717.9,751.824,718.042Zm6.3.279a4.2,4.2,0,0,1-1.556-.042A6.041,6.041,0,0,1,758.129,718.321Zm5.484-.391c-2.71-.762,2.184-.7.683-.2C766.636,717.9,765.174,718.125,763.613,717.93Zm4.986.65c-.672-.3.8-.355,1.351-.1A3.7,3.7,0,0,0,768.6,718.579Zm3.047-.6a2.152,2.152,0,0,1,.446.063A1.811,1.811,0,0,1,771.646,717.979Zm-.444.441a7.749,7.749,0,0,1,1.423.193C772.1,718.595,771.261,718.579,771.2,718.42Zm1.251.305c.088-.026.157-.058.181-.11C772.818,718.686,772.81,718.762,772.453,718.725Zm2.19-.478c.076.089-.072.123-.446.1C774.121,718.264,774.27,718.23,774.643,718.248Zm-3.33-.355c-2.738.908.165-.368-2.337-.1C768.76,717.6,772.2,717.405,771.313,717.893Zm11.982.566c.183-.021.285-.057.064.036C783.339,718.483,783.311,718.472,783.3,718.459Zm.823.464c-.813-.391-1.186-2.2,2.258-.908C784.4,718.227,784.973,718.4,784.118,718.923Zm2.274-.913c.269-.031.444-.243.917-.2C787.049,717.859,786.753,717.927,786.392,718.011Zm12.114-.522c.149-.008.207.008.135.055C798.6,717.525,798.543,717.51,798.506,717.489Zm25.479,1.688a2.369,2.369,0,0,1,1.136-.115C824.756,719.093,824.363,719.132,823.984,719.176Zm19.772-.188c1.192-.063,1.3.11,1.387.376C844.27,719.45,843.88,719.244,843.756,718.989Zm5.4.691a4.176,4.176,0,0,1-1.337,0C847.65,719.21,849.607,719.268,849.152,719.68Zm11.8.125c1.77.136,1.913-.811,2-.378C863.518,719.954,861.021,720.256,860.955,719.805Zm4.009-.944c-.054-.005-.038-.01,0-.018Zm14.17-.571a.115.115,0,0,0,.028.086C879.085,718.357,879.073,718.329,879.135,718.29Zm8.834-.4c.128-.112.353-.117.321.016A3.175,3.175,0,0,0,887.968,717.885Zm3.946,1.92c-6.395.258.544-.545,2-1.323-2.248-.01-4.555,1.14-5.791.125,6-.991.895-.626,7.515-.29C891.428,719.156,898.436,719.722,891.914,719.805Zm10.964-1.549a1.668,1.668,0,0,0,.287-.052C903.1,718.269,903.075,718.29,902.878,718.256Zm.62-.214a2.826,2.826,0,0,0-.323.157C899.472,718.2,902.942,717.567,903.5,718.042Zm57.745.942c-1.174-.008-.179-.42.452-.5C962.561,718.634,962.1,718.788,961.242,718.983Zm32.517.31c-.693.107-1.74.209-1.781-.063C992.434,719.176,994.016,718.952,993.759,719.294Zm2.449-1.362c.008-.342,1.764-.608,1.61-.185C997.565,717.979,997.541,717.872,996.208,717.932Zm1.889-.438c.044.008.185.013.09.021Zm12.468-.065c-1.779.1-4.228.36-6.205.558-2.314-.222,9.007-1.82,5.079-.916C1009.94,717.567,1016.8,716.909,1010.566,717.429Zm15.041-.488c2.6-.433.877.112,2.058.316C1026.516,717.293,1027.067,716.863,1025.607,716.941Zm6.452-.321c.674.052.887-.446,1.558-.078C1032.761,716.751,1030.625,716.878,1032.059,716.62Zm1.19.373c.09,0,0,.005-.03.01Zm2.6,2.178c-1.315-.018-2.148-.055-.891-.31C1035.718,718.916,1036.29,718.963,1035.853,719.171Zm1.335-.373c-1.281.133.092-.662.891-.433Zm84.856.558c-1.716-.05-.49-.882,1.337-.618A2.384,2.384,0,0,1,1122.044,719.357Zm16.918-3.472c.309-.1.685-.35.8-.123A4.261,4.261,0,0,1,1138.962,715.885Zm2.124-.078c-2.935-.537.369-.107,1.861-.689C1145.05,715.138,1141.682,715.678,1141.086,715.806Zm1.783-.034c.225-.109.267-.136.084.016Zm12.789-.785a3.11,3.11,0,0,1,.927-.318A4.2,4.2,0,0,1,1155.659,714.987Zm17.857,1.388,1.435.068C1173.968,716.529,1173.263,716.545,1173.516,716.375Zm2.425,1.928c.341.029.53.083.447.188C1176.023,718.511,1176.076,718.37,1175.941,718.3Zm1.56-.185c-2.309-.3,1.19-.6,3.563-.5C1179.558,718.219,1179.472,717.859,1177.5,718.117Zm7.349-.743c-3.581-.543-5.081-1.015-.221-.618C1185.876,717.137,1190.769,716.581,1184.85,717.374Zm12.026-.123c-.652.055-.749-.018-.59-.117C1196.693,717.163,1197.785,717.111,1196.876,717.252Zm6.682.123c-.391-.11-.062-.076.249-.073Zm8.909.125c-1.355.493-1.1.741-.416.592-1.937.172-1.475.519-2.256.895C1208.95,718.493,1207.661,716.991,1212.467,717.5Zm21.159-.063a11.88,11.88,0,0,0-2.672.433C1225.986,717.069,1234.036,717.444,1233.626,717.437Zm.444,0c.38,0,.954-.023.891.125C1234.545,717.554,1233.907,717.611,1234.07,717.437Zm6.237-.062c.233-.214,1.1-.123.668.188C1239.959,718.156,1237.557,717.429,1240.307,717.374Zm2.9-.123c-.08-.008-.137-.008-.213-.016C1243.077,717.238,1243.3,717.215,1243.2,717.252Zm19.154.928c-.165-.206.4-.261.668-.063A3.183,3.183,0,0,1,1262.357,718.18Zm-5.307-.326c3.6-1.041,7.947-.756,10.2-.665C1265.649,718.527,1261.2,717.491,1257.05,717.854Zm12.654.511c1.479-.1.667.759,1.116,1.054C1269.028,719.591,1269.244,718.558,1269.7,718.365Zm5.123,1.362a4.162,4.162,0,0,1-1.335,0C1273.327,719.265,1275.284,719.323,1274.827,719.727Zm11.8.125c1.769.13,1.913-.8,2-.373C1289.195,720,1286.7,720.3,1286.632,719.852Zm4.009-.929c-.666-.024-.733-.313-.446-.433C1290.922,718.537,1290.566,718.759,1290.641,718.923Zm.444-.558c-4.217-.044-2.5-1.135-5.121-.248-.185-.263-3.075.723-3.788-.681-4.135-.43.478,1.3-3.117.621.468-.926-4.386.243-5.568-.125-5.488-1.26,6.173-.428,8.907-.866,5.046-.225-1.126.97,4.231.618C1287.708,716.761,1294.722,716.714,1291.086,718.365Zm1.114-1.236c.939.081,1.983.123,2.973.175A2.544,2.544,0,0,1,1292.2,717.129Zm27.4,1.607c4.26.835-6.608,2.048-3.788.558,1.823.5,2.258-.323,3.786-.743-2.076-.18-3.7,1.26-5.791.125,4.934-.5,1.269-1.641,7.291-1.484C1328.949,717.071,1323.766,717.442,1319.6,718.735Zm79.774-3.988c-2.583.219-4.516-.749-2.724-.584C1395.518,714.674,1405.738,713.97,1399.37,714.747Zm5.468,1.787c-.6-.169-1.742.733-2.734.157-.174-.342,1.678.185.369-.177C1403.7,716.425,1406.027,715.676,1404.837,716.534Zm1.863-1.5c-.9-.047-4.215-.569-.3-.558C1406,714.831,1411.812,715.123,1406.7,715.037Zm3.354-.235c-.415-.243,3.483.021,3.786-.209-.034-.331-2.28,0-1.819-.376,2.453-.083,5.364-.681,4.677-.929,7.634,1.135-3.292-.31.972.772C1412.6,714.236,1417.284,714.93,1410.055,714.8Zm5.568,2.035c-.135-.123.279-.11.67-.1A5.859,5.859,0,0,1,1415.622,716.837Zm.891-.1q-.17-.2.67-.156C1417.3,716.709,1417.075,716.761,1416.513,716.732Zm-2-.835c4.625.209.355-.109,3.342-.417C1419.069,716.273,1415.072,716.659,1414.508,715.9Zm8.463-2.193c1.219.767-2.714.532-1.558.208,1.77.005-.99-.29-.668-.522C1424.962,712.358,1430.037,713.85,1422.971,713.7Zm10.938-1.936c.157.065.307.13.446.193C1433.361,711.985,1433.383,711.891,1433.909,711.768Zm2.78.222c-.109-.289,1.19-.073,1.59-.094A3.625,3.625,0,0,1,1436.689,711.99Zm33.886-14.772.012-.018C1470.581,697.205,1470.6,697.219,1470.575,697.219Zm3.362-24.47c4.476-.1-4.131,2.89-3.76,1.484,1.939.068-1.046-.543.809-.4.673.811-.333-1.315.5-.276,2.286-.863.795.287.482.305,2.166-.355,1.658-1.007.427-1.265C1471.328,672.094,1473.5,672.36,1473.937,672.749Zm-1.269-1.435a1.321,1.321,0,0,0,.343-.073C1473.293,671.374,1473.056,671.385,1472.667,671.314Zm1.493-2.092c2.756.157.159-.605.891-.929.783.269,2.258.775.69,1.184C1476.2,668.726,1474.08,670.083,1474.16,669.222Zm3.34-.185c1.754.464.153-.188,2.674-.063C1478.847,669.89,1477.227,670.477,1477.5,669.037Zm2.228-2.971c.67-.018.167.41,0,.248C1479.09,666.264,1479.4,666.16,1479.728,666.066Zm-2.228-1.735c-.638.368-3.318.112-1.558-.185C1476.7,663.969,1476.344,664.464,1477.5,664.331Zm-1.114-.8c-.48.008-.01-.193,0-.248C1476.7,663.392,1476.364,663.405,1476.386,663.528Zm-.891-.37c1.038.381-.128.446-1.112.618C1473.921,663.575,1474.706,663.264,1475.5,663.157Zm-3.7-.574c-4.9-.326,7.383-1.935.938-1.807-5.916.691.745-1.826.311-.282-1.046-1.127-.367,1.088.67-.5.674-.115.289.54.891.621C1477.492,659.667,1474.519,661.063,1471.8,662.583Zm1.09-3.887c-.454.931,2.459-.193,3.493.723C1474.812,659.279,1466.793,659.506,1472.887,658.7Zm-.731-3.524c1.51-.081.436.263-.293.352C1471.621,655.478,1472.129,655.282,1472.155,655.173Zm3.83-1.985c-.839-.01-.683-.12-.357-.277C1476.121,652.906,1476.2,653.034,1475.985,653.188Zm-5.683-.258c.1-.125.141-.12.293,0A1.6,1.6,0,0,1,1470.3,652.93Zm1.186-4.257c6.685-.509.751.8,4.936.9.514-1.142.122.052.646.428C1474.648,649.257,1469,649.844,1471.488,648.673Zm3.045-4.048c.006.151,1.289.177,1.006.206C1475.081,644.838,1473.582,644.956,1474.533,644.624Zm-2.762.608c.53.211-.229.425-.9.25C1470.97,645.36,1471.522,645.31,1471.771,645.232Zm5.255-5.632c-.412-.031-.363.076-.121.042-1.933,2.684-1.592,1.474-1.853-.005-.974-.029-1.921.832-3.539-.292,1.869.117,3.854.4,2.816-.287,3.111-.5-.538,1,3.842.209C1477.689,639.387,1477.326,639.5,1477.025,639.6Zm-3.089-2.812c-.432.389-2.74.584-3.356-.026,1.319.443,1.831-.1,2.726-.556C1474.915,636.345,1476.442,636.614,1473.937,636.789Zm3.342-27.232v.248C1476.533,609.726,1476.3,609.3,1477.279,609.556Zm-2.672.5c-1.289.563.851.543,1.857,1.08C1474.315,611.544,1471.111,609.6,1474.606,610.052Zm-3.788-.749c.584-.07,1.176-.12,1.758-.141C1472.173,609.877,1471.372,609.71,1470.818,609.3Zm2.266-1.035c-.032-.065.131.013.229.034A.245.245,0,0,1,1473.084,608.268ZM1479.5,603c-.944.021-.125-.133.032-.282C1479.716,602.8,1479.75,602.889,1479.5,603Zm-4.621-23.017c-.654-.143-1.321-.331-.919-.6C1474.016,579.671,1474.447,579.841,1474.883,579.979Zm-2.676-5.8c-1.933-1.21-1.146-.957.4-1.179C1472.65,573.247,1474.473,575.373,1472.207,574.178Zm-.014-7.687c-.406.008-.365-.062-.418-.135C1472.107,566.261,1472.265,566.324,1472.193,566.491Z" transform="translate(17214.775 3218.53)" fill="#1a1e26" fill-rule="evenodd"/>
  </g>
</svg>
